<?xml version="1.0" encoding="UTF-8" standalone="no"?><svg xmlns="http://www.w3.org/2000/svg" xmlns:xlink="http://www.w3.org/1999/xlink" contentScriptType="application/ecmascript" contentStyleType="text/css" height="488px" preserveAspectRatio="none" style="width:929px;height:488px;" version="1.1" viewBox="0 0 929 488" width="929px" zoomAndPan="magnify"><defs><filter height="300%" id="f9p3tqekkwxci" width="300%" x="-1" y="-1"><feGaussianBlur result="blurOut" stdDeviation="2.0"/><feColorMatrix in="blurOut" result="blurOut2" type="matrix" values="0 0 0 0 0 0 0 0 0 0 0 0 0 0 0 0 0 0 .4 0"/><feOffset dx="4.0" dy="4.0" in="blurOut2" result="blurOut3"/><feBlend in="SourceGraphic" in2="blurOut3" mode="normal"/></filter></defs><g><!--MD5=[47579e584d4bbcd76f06b338ea13b746]
cluster main.de.htw.berlin.s0551733.sharknetpki--><polygon fill="#FFFFFF" filter="url(#f9p3tqekkwxci)" points="51,24,351,24,358,46.4883,907,46.4883,907,291,51,291,51,24" style="stroke: #000000; stroke-width: 1.5;"/><line style="stroke: #000000; stroke-width: 1.5;" x1="51" x2="358" y1="46.4883" y2="46.4883"/><text fill="#000000" font-family="sans-serif" font-size="14" font-weight="bold" lengthAdjust="spacingAndGlyphs" textLength="294" x="55" y="39.5352">main.de.htw.berlin.s0551733.sharknetpki</text><!--MD5=[a13fe574b3027fd05803d6946e96484b]
cluster main.de.htw.berlin.s0551733.sharknetpki.interfaces--><polygon fill="#FFFFFF" filter="url(#f9p3tqekkwxci)" points="22,340,396,340,403,362.4883,549,362.4883,549,439,22,439,22,340" style="stroke: #000000; stroke-width: 1.5;"/><line style="stroke: #000000; stroke-width: 1.5;" x1="22" x2="403" y1="362.4883" y2="362.4883"/><text fill="#000000" font-family="sans-serif" font-size="14" font-weight="bold" lengthAdjust="spacingAndGlyphs" textLength="368" x="26" y="355.5352">main.de.htw.berlin.s0551733.sharknetpki.interfaces</text><!--MD5=[48e813d0c588c3493d9d9f18c59f7f1f]
class main.de.htw.berlin.s0551733.sharknetpki.VerifySignaturResult--><a href="VerifySignaturResult.html" target="_top" title="VerifySignaturResult.html" xlink:actuate="onRequest" xlink:href="VerifySignaturResult.html" xlink:show="new" xlink:title="VerifySignaturResult.html" xlink:type="simple"><rect fill="#FEFECE" filter="url(#f9p3tqekkwxci)" height="99.8203" id="main.de.htw.berlin.s0551733.sharknetpki.VerifySignaturResult" style="stroke: #A80036; stroke-width: 1.5;" width="146" x="745" y="117"/><ellipse cx="760" cy="133" fill="#EB937F" rx="11" ry="11" style="stroke: #A80036; stroke-width: 1.0;"/><path d="M763.6143,139.5 L755.8945,139.5 L755.8945,127.1069 L763.6143,127.1069 L763.6143,129.2651 L758.3433,129.2651 L758.3433,131.938 L763.1162,131.938 L763.1162,134.0962 L758.3433,134.0962 L758.3433,137.3418 L763.6143,137.3418 Z "/><text fill="#000000" font-family="sans-serif" font-size="12" lengthAdjust="spacingAndGlyphs" textLength="114" x="774" y="137.5352">VerifySignaturResult</text><line style="stroke: #A80036; stroke-width: 1.5;" x1="746" x2="890" y1="149" y2="149"/><ellipse cx="756" cy="160" fill="none" rx="3" ry="3" style="stroke: #038048; stroke-width: 1.0;"/><text fill="#000000" font-family="sans-serif" font-size="11" lengthAdjust="spacingAndGlyphs" text-decoration="underline" textLength="46" x="765" y="163.6348">VERIFIED</text><ellipse cx="756" cy="172.9551" fill="none" rx="3" ry="3" style="stroke: #038048; stroke-width: 1.0;"/><text fill="#000000" font-family="sans-serif" font-size="11" lengthAdjust="spacingAndGlyphs" text-decoration="underline" textLength="69" x="765" y="176.5898">INVALID_KEY</text><ellipse cx="756" cy="185.9102" fill="none" rx="3" ry="3" style="stroke: #038048; stroke-width: 1.0;"/><text fill="#000000" font-family="sans-serif" font-size="11" lengthAdjust="spacingAndGlyphs" text-decoration="underline" textLength="97" x="765" y="189.5449">SIGNATUR_ERROR</text><ellipse cx="756" cy="198.8652" fill="none" rx="3" ry="3" style="stroke: #038048; stroke-width: 1.0;"/><text fill="#000000" font-family="sans-serif" font-size="11" lengthAdjust="spacingAndGlyphs" text-decoration="underline" textLength="99" x="765" y="202.5">UNKNOWN_ERROR</text><line style="stroke: #A80036; stroke-width: 1.5;" x1="746" x2="890" y1="208.8203" y2="208.8203"/></a><!--MD5=[d6fbd44cf334f2c03cea4158d067195a]
class main.de.htw.berlin.s0551733.sharknetpki.SharkNetPKI--><a href="SharkNetPKI.html" target="_top" title="SharkNetPKI.html" xlink:actuate="onRequest" xlink:href="SharkNetPKI.html" xlink:show="new" xlink:title="SharkNetPKI.html" xlink:type="simple"><rect fill="#FEFECE" filter="url(#f9p3tqekkwxci)" height="216.416" id="main.de.htw.berlin.s0551733.sharknetpki.SharkNetPKI" style="stroke: #A80036; stroke-width: 1.5;" width="560" x="67" y="59"/><ellipse cx="307.75" cy="75" fill="#ADD1B2" rx="11" ry="11" style="stroke: #A80036; stroke-width: 1.0;"/><path d="M310.2231,81.1431 Q309.6421,81.4419 309.0029,81.5913 Q308.3638,81.7407 307.6582,81.7407 Q305.1514,81.7407 303.8315,80.0889 Q302.5117,78.437 302.5117,75.3159 Q302.5117,72.1865 303.8315,70.5347 Q305.1514,68.8828 307.6582,68.8828 Q308.3638,68.8828 309.0112,69.0322 Q309.6587,69.1816 310.2231,69.4805 L310.2231,72.2031 Q309.5923,71.6221 308.9988,71.3523 Q308.4053,71.0825 307.7744,71.0825 Q306.4297,71.0825 305.7449,72.1492 Q305.0601,73.2158 305.0601,75.3159 Q305.0601,77.4077 305.7449,78.4744 Q306.4297,79.541 307.7744,79.541 Q308.4053,79.541 308.9988,79.2712 Q309.5923,79.0015 310.2231,78.4204 Z "/><text fill="#000000" font-family="sans-serif" font-size="12" lengthAdjust="spacingAndGlyphs" textLength="70" x="328.25" y="79.5352">SharkNetPKI</text><line style="stroke: #A80036; stroke-width: 1.5;" x1="68" x2="626" y1="91" y2="91"/><line style="stroke: #A80036; stroke-width: 1.5;" x1="68" x2="626" y1="99" y2="99"/><ellipse cx="78" cy="110" fill="#84BE84" rx="3" ry="3" style="stroke: #038048; stroke-width: 1.0;"/><text fill="#000000" font-family="sans-serif" font-size="11" lengthAdjust="spacingAndGlyphs" text-decoration="underline" textLength="198" x="87" y="113.6348">init(char[], InputStream): SharkNetPKI</text><ellipse cx="78" cy="122.9551" fill="#84BE84" rx="3" ry="3" style="stroke: #038048; stroke-width: 1.0;"/><text fill="#000000" font-family="sans-serif" font-size="11" lengthAdjust="spacingAndGlyphs" text-decoration="underline" textLength="534" x="87" y="126.5898">init(char[], InputStream, HashSet&lt;SharkNetPublicKey&gt;, HashSet&lt;SharkNetCertificate&gt;): SharkNetPKI</text><ellipse cx="78" cy="135.9102" fill="#84BE84" rx="3" ry="3" style="stroke: #038048; stroke-width: 1.0;"/><text fill="#000000" font-family="sans-serif" font-size="11" lengthAdjust="spacingAndGlyphs" textLength="165" x="87" y="139.5449">getPublicKey(String): PublicKey</text><ellipse cx="78" cy="148.8652" fill="#84BE84" rx="3" ry="3" style="stroke: #038048; stroke-width: 1.0;"/><text fill="#000000" font-family="sans-serif" font-size="11" lengthAdjust="spacingAndGlyphs" textLength="221" x="87" y="152.5">getCertificate(String): SharkNetCertificate</text><ellipse cx="78" cy="161.8203" fill="#84BE84" rx="3" ry="3" style="stroke: #038048; stroke-width: 1.0;"/><text fill="#000000" font-family="sans-serif" font-size="11" lengthAdjust="spacingAndGlyphs" textLength="215" x="87" y="165.4551">addCertificate(SharkNetCertificate): void</text><ellipse cx="78" cy="174.7754" fill="#84BE84" rx="3" ry="3" style="stroke: #038048; stroke-width: 1.0;"/><text fill="#000000" font-family="sans-serif" font-size="11" lengthAdjust="spacingAndGlyphs" textLength="207" x="87" y="178.4102">addPublicKey(SharkNetPublicKey): void</text><ellipse cx="78" cy="187.7305" fill="#84BE84" rx="3" ry="3" style="stroke: #038048; stroke-width: 1.0;"/><text fill="#000000" font-family="sans-serif" font-size="11" lengthAdjust="spacingAndGlyphs" textLength="387" x="87" y="191.3652">generateCertificate(PublicKey, PrivateKey, String, String): X509Certificate</text><ellipse cx="78" cy="200.6855" fill="#84BE84" rx="3" ry="3" style="stroke: #038048; stroke-width: 1.0;"/><text fill="#000000" font-family="sans-serif" font-size="11" lengthAdjust="spacingAndGlyphs" textLength="172" x="87" y="204.3203">getMyOwnPublicKey(): PublicKey</text><ellipse cx="78" cy="213.6406" fill="#84BE84" rx="3" ry="3" style="stroke: #038048; stroke-width: 1.0;"/><text fill="#000000" font-family="sans-serif" font-size="11" lengthAdjust="spacingAndGlyphs" textLength="316" x="87" y="217.2754">verifySignature(Certificate, PublicKey): VerifySignaturResult</text><ellipse cx="78" cy="226.5957" fill="#84BE84" rx="3" ry="3" style="stroke: #038048; stroke-width: 1.0;"/><text fill="#000000" font-family="sans-serif" font-size="11" lengthAdjust="spacingAndGlyphs" textLength="227" x="87" y="230.2305">removePublicKey(SharkNetPublicKey): void</text><ellipse cx="78" cy="239.5508" fill="#84BE84" rx="3" ry="3" style="stroke: #038048; stroke-width: 1.0;"/><text fill="#000000" font-family="sans-serif" font-size="11" lengthAdjust="spacingAndGlyphs" textLength="235" x="87" y="243.1855">removeCertificate(SharkNetCertificate): void</text><ellipse cx="78" cy="252.5059" fill="#84BE84" rx="3" ry="3" style="stroke: #038048; stroke-width: 1.0;"/><text fill="#000000" font-family="sans-serif" font-size="11" lengthAdjust="spacingAndGlyphs" textLength="141" x="87" y="256.1406">getPrivateKey(): PrivateKey</text><ellipse cx="78" cy="265.4609" fill="#84BE84" rx="3" ry="3" style="stroke: #038048; stroke-width: 1.0;"/><text fill="#000000" font-family="sans-serif" font-size="11" lengthAdjust="spacingAndGlyphs" textLength="196" x="87" y="269.0957">persistKeyStore(OutputStream): void</text></a><!--MD5=[d2546026c033e8906a7dafe46040a5f5]
class main.de.htw.berlin.s0551733.sharknetpki.interfaces.PKI--><rect fill="#FEFECE" filter="url(#f9p3tqekkwxci)" height="48" id="main.de.htw.berlin.s0551733.sharknetpki.interfaces.PKI" style="stroke: #A80036; stroke-width: 1.5;" width="50" x="483" y="375"/><ellipse cx="498" cy="391" fill="#ADD1B2" rx="11" ry="11" style="stroke: #A80036; stroke-width: 1.0;"/><path d="M500.4731,397.1431 Q499.8921,397.4419 499.2529,397.5913 Q498.6138,397.7407 497.9082,397.7407 Q495.4014,397.7407 494.0815,396.0889 Q492.7617,394.437 492.7617,391.3159 Q492.7617,388.1865 494.0815,386.5347 Q495.4014,384.8828 497.9082,384.8828 Q498.6138,384.8828 499.2612,385.0322 Q499.9087,385.1816 500.4731,385.4805 L500.4731,388.2031 Q499.8423,387.6221 499.2488,387.3523 Q498.6553,387.0825 498.0244,387.0825 Q496.6797,387.0825 495.9949,388.1492 Q495.3101,389.2158 495.3101,391.3159 Q495.3101,393.4077 495.9949,394.4744 Q496.6797,395.541 498.0244,395.541 Q498.6553,395.541 499.2488,395.2712 Q499.8423,395.0015 500.4731,394.4204 Z "/><text fill="#000000" font-family="sans-serif" font-size="12" lengthAdjust="spacingAndGlyphs" textLength="18" x="512" y="395.5352">PKI</text><line style="stroke: #A80036; stroke-width: 1.5;" x1="484" x2="532" y1="407" y2="407"/><line style="stroke: #A80036; stroke-width: 1.5;" x1="484" x2="532" y1="415" y2="415"/><!--MD5=[dafeebc1e6836821d9b1b48a11869850]
class main.de.htw.berlin.s0551733.sharknetpki.interfaces.User--><rect fill="#FEFECE" filter="url(#f9p3tqekkwxci)" height="48" id="main.de.htw.berlin.s0551733.sharknetpki.interfaces.User" style="stroke: #A80036; stroke-width: 1.5;" width="58" x="38" y="375"/><ellipse cx="53" cy="391" fill="#ADD1B2" rx="11" ry="11" style="stroke: #A80036; stroke-width: 1.0;"/><path d="M55.4731,397.1431 Q54.8921,397.4419 54.2529,397.5913 Q53.6138,397.7407 52.9082,397.7407 Q50.4014,397.7407 49.0815,396.0889 Q47.7617,394.437 47.7617,391.3159 Q47.7617,388.1865 49.0815,386.5347 Q50.4014,384.8828 52.9082,384.8828 Q53.6138,384.8828 54.2612,385.0322 Q54.9087,385.1816 55.4731,385.4805 L55.4731,388.2031 Q54.8423,387.6221 54.2488,387.3523 Q53.6553,387.0825 53.0244,387.0825 Q51.6797,387.0825 50.9949,388.1492 Q50.3101,389.2158 50.3101,391.3159 Q50.3101,393.4077 50.9949,394.4744 Q51.6797,395.541 53.0244,395.541 Q53.6553,395.541 54.2488,395.2712 Q54.8423,395.0015 55.4731,394.4204 Z "/><text fill="#000000" font-family="sans-serif" font-size="12" lengthAdjust="spacingAndGlyphs" textLength="26" x="67" y="395.5352">User</text><line style="stroke: #A80036; stroke-width: 1.5;" x1="39" x2="95" y1="407" y2="407"/><line style="stroke: #A80036; stroke-width: 1.5;" x1="39" x2="95" y1="415" y2="415"/><!--MD5=[35965e96ca2dba2d87bf4fc5e1293efb]
class main.de.htw.berlin.s0551733.sharknetpki.interfaces.SharkNetPublicKey--><rect fill="#FEFECE" filter="url(#f9p3tqekkwxci)" height="48" id="main.de.htw.berlin.s0551733.sharknetpki.interfaces.SharkNetPublicKey" style="stroke: #A80036; stroke-width: 1.5;" width="139" x="131.5" y="375"/><ellipse cx="146.5" cy="391" fill="#ADD1B2" rx="11" ry="11" style="stroke: #A80036; stroke-width: 1.0;"/><path d="M148.9731,397.1431 Q148.3921,397.4419 147.7529,397.5913 Q147.1138,397.7407 146.4082,397.7407 Q143.9014,397.7407 142.5815,396.0889 Q141.2617,394.437 141.2617,391.3159 Q141.2617,388.1865 142.5815,386.5347 Q143.9014,384.8828 146.4082,384.8828 Q147.1138,384.8828 147.7612,385.0322 Q148.4087,385.1816 148.9731,385.4805 L148.9731,388.2031 Q148.3423,387.6221 147.7488,387.3523 Q147.1553,387.0825 146.5244,387.0825 Q145.1797,387.0825 144.4949,388.1492 Q143.8101,389.2158 143.8101,391.3159 Q143.8101,393.4077 144.4949,394.4744 Q145.1797,395.541 146.5244,395.541 Q147.1553,395.541 147.7488,395.2712 Q148.3423,395.0015 148.9731,394.4204 Z "/><text fill="#000000" font-family="sans-serif" font-size="12" lengthAdjust="spacingAndGlyphs" textLength="107" x="160.5" y="395.5352">SharkNetPublicKey</text><line style="stroke: #A80036; stroke-width: 1.5;" x1="132.5" x2="269.5" y1="407" y2="407"/><line style="stroke: #A80036; stroke-width: 1.5;" x1="132.5" x2="269.5" y1="415" y2="415"/><!--MD5=[56eabb73f25125e87d3a3f95bb466d9a]
class main.de.htw.berlin.s0551733.sharknetpki.interfaces.SharkNetCertificate--><rect fill="#FEFECE" filter="url(#f9p3tqekkwxci)" height="48" id="main.de.htw.berlin.s0551733.sharknetpki.interfaces.SharkNetCertificate" style="stroke: #A80036; stroke-width: 1.5;" width="142" x="306" y="375"/><ellipse cx="321" cy="391" fill="#ADD1B2" rx="11" ry="11" style="stroke: #A80036; stroke-width: 1.0;"/><path d="M323.4731,397.1431 Q322.8921,397.4419 322.2529,397.5913 Q321.6138,397.7407 320.9082,397.7407 Q318.4014,397.7407 317.0815,396.0889 Q315.7617,394.437 315.7617,391.3159 Q315.7617,388.1865 317.0815,386.5347 Q318.4014,384.8828 320.9082,384.8828 Q321.6138,384.8828 322.2612,385.0322 Q322.9087,385.1816 323.4731,385.4805 L323.4731,388.2031 Q322.8423,387.6221 322.2488,387.3523 Q321.6553,387.0825 321.0244,387.0825 Q319.6797,387.0825 318.9949,388.1492 Q318.3101,389.2158 318.3101,391.3159 Q318.3101,393.4077 318.9949,394.4744 Q319.6797,395.541 321.0244,395.541 Q321.6553,395.541 322.2488,395.2712 Q322.8423,395.0015 323.4731,394.4204 Z "/><text fill="#000000" font-family="sans-serif" font-size="12" lengthAdjust="spacingAndGlyphs" textLength="110" x="335" y="395.5352">SharkNetCertificate</text><line style="stroke: #A80036; stroke-width: 1.5;" x1="307" x2="447" y1="407" y2="407"/><line style="stroke: #A80036; stroke-width: 1.5;" x1="307" x2="447" y1="415" y2="415"/><!--MD5=[c738d50897b27b7c1fe559a13acb57fb]
reverse link main.de.htw.berlin.s0551733.sharknetpki.interfaces.PKI to main.de.htw.berlin.s0551733.sharknetpki.SharkNetPKI--><path d="M482.88,357.71 C477.4,349.16 471.58,340.24 466,332 C453.47,313.51 439.84,294.1 426.42,275.36 " fill="none" id="main.de.htw.berlin.s0551733.sharknetpki.interfaces.PKI&lt;-main.de.htw.berlin.s0551733.sharknetpki.SharkNetPKI" style="stroke: #A80036; stroke-width: 1.0; stroke-dasharray: 7.0,7.0;"/><polygon fill="none" points="488.96,354.24,493.74,374.88,477.13,361.72,488.96,354.24" style="stroke: #A80036; stroke-width: 1.0;"/><!--MD5=[0ac0c72a300b26120dc355531855a68f]
link main.de.htw.berlin.s0551733.sharknetpki.SharkNetPKI to main.de.htw.berlin.s0551733.sharknetpki.SharkNetPKI--><path d="M627.05,146.08 C648.67,150.7 662,157.68 662,167 C662,175.59 650.67,182.19 631.96,186.79 " fill="none" id="main.de.htw.berlin.s0551733.sharknetpki.SharkNetPKI-&gt;main.de.htw.berlin.s0551733.sharknetpki.SharkNetPKI" style="stroke: #A80036; stroke-width: 1.0;"/><polygon fill="#A80036" points="627.05,187.92,636.7153,189.8125,631.9241,186.8051,634.9315,182.0139,627.05,187.92" style="stroke: #A80036; stroke-width: 1.0;"/><text fill="#000000" font-family="sans-serif" font-size="13" lengthAdjust="spacingAndGlyphs" textLength="53" x="668" y="172.0684">instance</text><!--MD5=[606e953bb88574debfce823f1806a718]
link main.de.htw.berlin.s0551733.sharknetpki.SharkNetPKI to main.de.htw.berlin.s0551733.sharknetpki.interfaces.User--><path d="M179.75,275.19 C156.63,292.96 133.99,312.12 114,332 C102.54,343.4 91.9,357.86 83.65,370.34 " fill="none" id="main.de.htw.berlin.s0551733.sharknetpki.SharkNetPKI-&gt;main.de.htw.berlin.s0551733.sharknetpki.interfaces.User" style="stroke: #A80036; stroke-width: 1.0;"/><polygon fill="#A80036" points="80.72,374.83,88.9857,369.4749,83.4505,370.6414,82.2839,365.1061,80.72,374.83" style="stroke: #A80036; stroke-width: 1.0;"/><text fill="#000000" font-family="sans-serif" font-size="13" lengthAdjust="spacingAndGlyphs" textLength="34" x="138" y="320.5684">users</text><text fill="#000000" font-family="sans-serif" font-size="13" lengthAdjust="spacingAndGlyphs" textLength="6" x="77.467" y="364.3227">*</text><!--MD5=[281ba78faf94ffcea57cc19140436365]
link main.de.htw.berlin.s0551733.sharknetpki.SharkNetPKI to main.de.htw.berlin.s0551733.sharknetpki.interfaces.SharkNetPublicKey--><path d="M252.04,275.32 C244.77,285.7 237.96,296.34 232,307 C220.91,326.84 212.84,351.33 207.73,369.9 " fill="none" id="main.de.htw.berlin.s0551733.sharknetpki.SharkNetPKI-&gt;main.de.htw.berlin.s0551733.sharknetpki.interfaces.SharkNetPublicKey" style="stroke: #A80036; stroke-width: 1.0;"/><polygon fill="#A80036" points="206.36,374.97,212.5622,367.3194,207.6599,370.1419,204.8373,365.2396,206.36,374.97" style="stroke: #A80036; stroke-width: 1.0;"/><text fill="#000000" font-family="sans-serif" font-size="13" lengthAdjust="spacingAndGlyphs" textLength="124" x="233" y="320.5684">sharkNetPublicKeys</text><text fill="#000000" font-family="sans-serif" font-size="13" lengthAdjust="spacingAndGlyphs" textLength="6" x="200.9943" y="364.1064">*</text><!--MD5=[e5724fac38916a330d77c6d45ec80d97]
link main.de.htw.berlin.s0551733.sharknetpki.SharkNetPKI to main.de.htw.berlin.s0551733.sharknetpki.interfaces.SharkNetCertificate--><path d="M360.99,275.26 C365.53,310.1 370.2,345.89 373.32,369.77 " fill="none" id="main.de.htw.berlin.s0551733.sharknetpki.SharkNetPKI-&gt;main.de.htw.berlin.s0551733.sharknetpki.interfaces.SharkNetCertificate" style="stroke: #A80036; stroke-width: 1.0;"/><polygon fill="#A80036" points="374,374.97,376.8128,365.5313,373.3588,370.0113,368.8788,366.5573,374,374.97" style="stroke: #A80036; stroke-width: 1.0;"/><text fill="#000000" font-family="sans-serif" font-size="13" lengthAdjust="spacingAndGlyphs" textLength="70" x="369" y="320.5684">certificates</text><text fill="#000000" font-family="sans-serif" font-size="13" lengthAdjust="spacingAndGlyphs" textLength="6" x="366.3875" y="364.1064">*</text><text fill="#888888" font-family="sans-serif" font-size="10" lengthAdjust="spacingAndGlyphs" textLength="182" x="379.5" y="474.668">UMLDoclet 2.0.7, PlantUML 1.2019.12</text><!--MD5=[305f5800456de76202469da91055d054]
@startuml
    namespace main.de.htw.berlin.s0551733.sharknetpki {

        enum VerifySignaturResult [[VerifySignaturResult.html]] {
            {static} +VERIFIED
            {static} +INVALID_KEY
            {static} +SIGNATUR_ERROR
            {static} +UNKNOWN_ERROR
        }

        class SharkNetPKI [[SharkNetPKI.html]] {
            {static} +init(char[], InputStream): SharkNetPKI
            {static} +init(char[], InputStream, HashSet<SharkNetPublicKey>, HashSet<SharkNetCertificate>): SharkNetPKI
            +getPublicKey(String): PublicKey
            +getCertificate(String): SharkNetCertificate
            +addCertificate(SharkNetCertificate): void
            +addPublicKey(SharkNetPublicKey): void
            +generateCertificate(PublicKey, PrivateKey, String, String): X509Certificate
            +getMyOwnPublicKey(): PublicKey
            +verifySignature(Certificate, PublicKey): VerifySignaturResult
            +removePublicKey(SharkNetPublicKey): void
            +removeCertificate(SharkNetCertificate): void
            +getPrivateKey(): PrivateKey
            +persistKeyStore(OutputStream): void
        }

        main.de.htw.berlin.s0551733.sharknetpki.interfaces.PKI <|.. SharkNetPKI
        SharkNetPKI - -> SharkNetPKI: instance
        SharkNetPKI - -> "*" main.de.htw.berlin.s0551733.sharknetpki.interfaces.User: users
        SharkNetPKI - -> "*" main.de.htw.berlin.s0551733.sharknetpki.interfaces.SharkNetPublicKey: sharkNetPublicKeys
        SharkNetPKI - -> "*" main.de.htw.berlin.s0551733.sharknetpki.interfaces.SharkNetCertificate: certificates
    }

    center footer UMLDoclet 2.0.7, PlantUML 1.2019.12
@enduml

PlantUML version 1.2019.12(Sun Nov 03 11:24:54 CET 2019)
(APACHE source distribution)
Java Runtime: OpenJDK Runtime Environment
JVM: OpenJDK 64-Bit Server VM
Java Version: 13.0.1+9
Operating System: Mac OS X
Default Encoding: UTF-8
Language: en
Country: DE
--></g></svg>