<?xml version="1.0" encoding="UTF-8" standalone="no"?><svg xmlns="http://www.w3.org/2000/svg" xmlns:xlink="http://www.w3.org/1999/xlink" contentScriptType="application/ecmascript" contentStyleType="text/css" height="909px" preserveAspectRatio="none" style="width:1094px;height:909px;" version="1.1" viewBox="0 0 1094 909" width="1094px" zoomAndPan="magnify"><defs><filter height="300%" id="ftyw5jwf5uads" width="300%" x="-1" y="-1"><feGaussianBlur result="blurOut" stdDeviation="2.0"/><feColorMatrix in="blurOut" result="blurOut2" type="matrix" values="0 0 0 0 0 0 0 0 0 0 0 0 0 0 0 0 0 0 .4 0"/><feOffset dx="4.0" dy="4.0" in="blurOut2" result="blurOut3"/><feBlend in="SourceGraphic" in2="blurOut3" mode="normal"/></filter></defs><g><!--MD5=[47579e584d4bbcd76f06b338ea13b746]
cluster main.de.htw.berlin.s0551733.sharknetpki--><polygon fill="#FFFFFF" filter="url(#ftyw5jwf5uads)" points="22,24,322,24,329,46.4883,1072,46.4883,1072,860,22,860,22,24" style="stroke: #000000; stroke-width: 1.5;"/><line style="stroke: #000000; stroke-width: 1.5;" x1="22" x2="329" y1="46.4883" y2="46.4883"/><text fill="#000000" font-family="sans-serif" font-size="14" font-weight="bold" lengthAdjust="spacingAndGlyphs" textLength="294" x="26" y="39.5352">main.de.htw.berlin.s0551733.sharknetpki</text><!--MD5=[0ec6fdf96ecd5601648548a0391aaf7a]
class main.de.htw.berlin.s0551733.sharknetpki.PKI--><a href="PKI.html" target="_top" title="PKI.html" xlink:actuate="onRequest" xlink:href="PKI.html" xlink:show="new" xlink:title="PKI.html" xlink:type="simple"><rect fill="#FEFECE" filter="url(#ftyw5jwf5uads)" height="164.5957" id="main.de.htw.berlin.s0551733.sharknetpki.PKI" style="stroke: #A80036; stroke-width: 1.5;" width="413" x="219.5" y="59"/><ellipse cx="412.75" cy="75" fill="#B4A7E5" rx="11" ry="11" style="stroke: #A80036; stroke-width: 1.0;"/><path d="M409.1777,71.2651 L409.1777,69.1069 L416.5571,69.1069 L416.5571,71.2651 L414.0918,71.2651 L414.0918,79.3418 L416.5571,79.3418 L416.5571,81.5 L409.1777,81.5 L409.1777,79.3418 L411.6431,79.3418 L411.6431,71.2651 Z "/><text fill="#000000" font-family="sans-serif" font-size="12" font-style="italic" lengthAdjust="spacingAndGlyphs" textLength="18" x="433.25" y="79.5352">PKI</text><line style="stroke: #A80036; stroke-width: 1.5;" x1="220.5" x2="631.5" y1="91" y2="91"/><line style="stroke: #A80036; stroke-width: 1.5;" x1="220.5" x2="631.5" y1="99" y2="99"/><ellipse cx="230.5" cy="110" fill="#84BE84" rx="3" ry="3" style="stroke: #038048; stroke-width: 1.0;"/><text fill="#000000" font-family="sans-serif" font-size="11" font-style="italic" lengthAdjust="spacingAndGlyphs" textLength="165" x="239.5" y="113.6348">getPublicKey(String): PublicKey</text><ellipse cx="230.5" cy="122.9551" fill="#84BE84" rx="3" ry="3" style="stroke: #038048; stroke-width: 1.0;"/><text fill="#000000" font-family="sans-serif" font-size="11" font-style="italic" lengthAdjust="spacingAndGlyphs" textLength="221" x="239.5" y="126.5898">getCertificate(String): SharkNetCertificate</text><ellipse cx="230.5" cy="135.9102" fill="#84BE84" rx="3" ry="3" style="stroke: #038048; stroke-width: 1.0;"/><text fill="#000000" font-family="sans-serif" font-size="11" font-style="italic" lengthAdjust="spacingAndGlyphs" textLength="215" x="239.5" y="139.5449">addCertificate(SharkNetCertificate): void</text><ellipse cx="230.5" cy="148.8652" fill="#84BE84" rx="3" ry="3" style="stroke: #038048; stroke-width: 1.0;"/><text fill="#000000" font-family="sans-serif" font-size="11" font-style="italic" lengthAdjust="spacingAndGlyphs" textLength="207" x="239.5" y="152.5">addPublicKey(SharkNetPublicKey): void</text><ellipse cx="230.5" cy="161.8203" fill="#84BE84" rx="3" ry="3" style="stroke: #038048; stroke-width: 1.0;"/><text fill="#000000" font-family="sans-serif" font-size="11" font-style="italic" lengthAdjust="spacingAndGlyphs" textLength="316" x="239.5" y="165.4551">verifySignature(Certificate, PublicKey): VerifySignaturResult</text><ellipse cx="230.5" cy="174.7754" fill="#84BE84" rx="3" ry="3" style="stroke: #038048; stroke-width: 1.0;"/><text fill="#000000" font-family="sans-serif" font-size="11" font-style="italic" lengthAdjust="spacingAndGlyphs" textLength="227" x="239.5" y="178.4102">removePublicKey(SharkNetPublicKey): void</text><ellipse cx="230.5" cy="187.7305" fill="#84BE84" rx="3" ry="3" style="stroke: #038048; stroke-width: 1.0;"/><text fill="#000000" font-family="sans-serif" font-size="11" font-style="italic" lengthAdjust="spacingAndGlyphs" textLength="235" x="239.5" y="191.3652">removeCertificate(SharkNetCertificate): void</text><ellipse cx="230.5" cy="200.6855" fill="#84BE84" rx="3" ry="3" style="stroke: #038048; stroke-width: 1.0;"/><text fill="#000000" font-family="sans-serif" font-size="11" font-style="italic" lengthAdjust="spacingAndGlyphs" textLength="172" x="239.5" y="204.3203">getMyOwnPublicKey(): PublicKey</text><ellipse cx="230.5" cy="213.6406" fill="#84BE84" rx="3" ry="3" style="stroke: #038048; stroke-width: 1.0;"/><text fill="#000000" font-family="sans-serif" font-size="11" font-style="italic" lengthAdjust="spacingAndGlyphs" textLength="387" x="239.5" y="217.2754">generateCertificate(PublicKey, PrivateKey, String, String): X509Certificate</text></a><!--MD5=[60e28f1b1fa46ac7f70619ce7b2847dc]
class main.de.htw.berlin.s0551733.sharknetpki.SharkNetPublicKey--><a href="SharkNetPublicKey.html" target="_top" title="SharkNetPublicKey.html" xlink:actuate="onRequest" xlink:href="SharkNetPublicKey.html" xlink:show="new" xlink:title="SharkNetPublicKey.html" xlink:type="simple"><rect fill="#FEFECE" filter="url(#ftyw5jwf5uads)" height="86.8652" id="main.de.htw.berlin.s0551733.sharknetpki.SharkNetPublicKey" style="stroke: #A80036; stroke-width: 1.5;" width="160" x="178" y="578"/><ellipse cx="202.45" cy="594" fill="#B4A7E5" rx="11" ry="11" style="stroke: #A80036; stroke-width: 1.0;"/><path d="M198.8777,590.2651 L198.8777,588.1069 L206.2571,588.1069 L206.2571,590.2651 L203.7918,590.2651 L203.7918,598.3418 L206.2571,598.3418 L206.2571,600.5 L198.8777,600.5 L198.8777,598.3418 L201.3431,598.3418 L201.3431,590.2651 Z "/><text fill="#000000" font-family="sans-serif" font-size="12" font-style="italic" lengthAdjust="spacingAndGlyphs" textLength="107" x="218.55" y="598.5352">SharkNetPublicKey</text><line style="stroke: #A80036; stroke-width: 1.5;" x1="179" x2="337" y1="610" y2="610"/><line style="stroke: #A80036; stroke-width: 1.5;" x1="179" x2="337" y1="618" y2="618"/><ellipse cx="189" cy="629" fill="#84BE84" rx="3" ry="3" style="stroke: #038048; stroke-width: 1.0;"/><text fill="#000000" font-family="sans-serif" font-size="11" font-style="italic" lengthAdjust="spacingAndGlyphs" textLength="111" x="198" y="632.6348">setAlias(String): void</text><ellipse cx="189" cy="641.9551" fill="#84BE84" rx="3" ry="3" style="stroke: #038048; stroke-width: 1.0;"/><text fill="#000000" font-family="sans-serif" font-size="11" font-style="italic" lengthAdjust="spacingAndGlyphs" textLength="133" x="198" y="645.5898">getPublicKey(): PublicKey</text><ellipse cx="189" cy="654.9102" fill="#84BE84" rx="3" ry="3" style="stroke: #038048; stroke-width: 1.0;"/><text fill="#000000" font-family="sans-serif" font-size="11" font-style="italic" lengthAdjust="spacingAndGlyphs" textLength="134" x="198" y="658.5449">getExpirationDate(): Date</text></a><!--MD5=[1492e09b876e805866db034bb89ce4ce]
class main.de.htw.berlin.s0551733.sharknetpki.User--><a href="User.html" target="_top" title="User.html" xlink:actuate="onRequest" xlink:href="User.html" xlink:show="new" xlink:title="User.html" xlink:type="simple"><rect fill="#FEFECE" filter="url(#ftyw5jwf5uads)" height="86.8652" id="main.de.htw.berlin.s0551733.sharknetpki.User" style="stroke: #A80036; stroke-width: 1.5;" width="137" x="313.5" y="757"/><ellipse cx="364.75" cy="773" fill="#B4A7E5" rx="11" ry="11" style="stroke: #A80036; stroke-width: 1.0;"/><path d="M361.1777,769.2651 L361.1777,767.1069 L368.5571,767.1069 L368.5571,769.2651 L366.0918,769.2651 L366.0918,777.3418 L368.5571,777.3418 L368.5571,779.5 L361.1777,779.5 L361.1777,777.3418 L363.6431,777.3418 L363.6431,769.2651 Z "/><text fill="#000000" font-family="sans-serif" font-size="12" font-style="italic" lengthAdjust="spacingAndGlyphs" textLength="26" x="385.25" y="777.5352">User</text><line style="stroke: #A80036; stroke-width: 1.5;" x1="314.5" x2="449.5" y1="789" y2="789"/><line style="stroke: #A80036; stroke-width: 1.5;" x1="314.5" x2="449.5" y1="797" y2="797"/><ellipse cx="324.5" cy="808" fill="#84BE84" rx="3" ry="3" style="stroke: #038048; stroke-width: 1.0;"/><text fill="#000000" font-family="sans-serif" font-size="11" font-style="italic" lengthAdjust="spacingAndGlyphs" textLength="88" x="333.5" y="811.6348">getUuid(): String</text><ellipse cx="324.5" cy="820.9551" fill="#84BE84" rx="3" ry="3" style="stroke: #038048; stroke-width: 1.0;"/><text fill="#000000" font-family="sans-serif" font-size="11" font-style="italic" lengthAdjust="spacingAndGlyphs" textLength="89" x="333.5" y="824.5898">getAlias(): String</text><ellipse cx="324.5" cy="833.9102" fill="#84BE84" rx="3" ry="3" style="stroke: #038048; stroke-width: 1.0;"/><text fill="#000000" font-family="sans-serif" font-size="11" font-style="italic" lengthAdjust="spacingAndGlyphs" textLength="111" x="333.5" y="837.5449">setAlias(String): void</text></a><!--MD5=[30997c89ce02389e1e9998bcfe6d41c7]
class main.de.htw.berlin.s0551733.sharknetpki.SharkNetCertificate--><a href="SharkNetCertificate.html" target="_top" title="SharkNetCertificate.html" xlink:actuate="onRequest" xlink:href="SharkNetCertificate.html" xlink:show="new" xlink:title="SharkNetCertificate.html" xlink:type="simple"><rect fill="#FEFECE" filter="url(#ftyw5jwf5uads)" height="60.9551" id="main.de.htw.berlin.s0551733.sharknetpki.SharkNetCertificate" style="stroke: #A80036; stroke-width: 1.5;" width="167" x="373.5" y="591"/><ellipse cx="399.75" cy="607" fill="#B4A7E5" rx="11" ry="11" style="stroke: #A80036; stroke-width: 1.0;"/><path d="M396.1777,603.2651 L396.1777,601.1069 L403.5571,601.1069 L403.5571,603.2651 L401.0918,603.2651 L401.0918,611.3418 L403.5571,611.3418 L403.5571,613.5 L396.1777,613.5 L396.1777,611.3418 L398.6431,611.3418 L398.6431,603.2651 Z "/><text fill="#000000" font-family="sans-serif" font-size="12" font-style="italic" lengthAdjust="spacingAndGlyphs" textLength="110" x="416.25" y="611.5352">SharkNetCertificate</text><line style="stroke: #A80036; stroke-width: 1.5;" x1="374.5" x2="539.5" y1="623" y2="623"/><line style="stroke: #A80036; stroke-width: 1.5;" x1="374.5" x2="539.5" y1="631" y2="631"/><ellipse cx="384.5" cy="642" fill="#84BE84" rx="3" ry="3" style="stroke: #038048; stroke-width: 1.0;"/><text fill="#000000" font-family="sans-serif" font-size="11" font-style="italic" lengthAdjust="spacingAndGlyphs" textLength="141" x="393.5" y="645.6348">getCertificate(): Certificate</text></a><!--MD5=[48e813d0c588c3493d9d9f18c59f7f1f]
class main.de.htw.berlin.s0551733.sharknetpki.VerifySignaturResult--><a href="VerifySignaturResult.html" target="_top" title="VerifySignaturResult.html" xlink:actuate="onRequest" xlink:href="VerifySignaturResult.html" xlink:show="new" xlink:title="VerifySignaturResult.html" xlink:type="simple"><rect fill="#FEFECE" filter="url(#ftyw5jwf5uads)" height="99.8203" id="main.de.htw.berlin.s0551733.sharknetpki.VerifySignaturResult" style="stroke: #A80036; stroke-width: 1.5;" width="146" x="38" y="91.5"/><ellipse cx="53" cy="107.5" fill="#EB937F" rx="11" ry="11" style="stroke: #A80036; stroke-width: 1.0;"/><path d="M56.6143,114 L48.8945,114 L48.8945,101.6069 L56.6143,101.6069 L56.6143,103.7651 L51.3433,103.7651 L51.3433,106.438 L56.1162,106.438 L56.1162,108.5962 L51.3433,108.5962 L51.3433,111.8418 L56.6143,111.8418 Z "/><text fill="#000000" font-family="sans-serif" font-size="12" lengthAdjust="spacingAndGlyphs" textLength="114" x="67" y="112.0352">VerifySignaturResult</text><line style="stroke: #A80036; stroke-width: 1.5;" x1="39" x2="183" y1="123.5" y2="123.5"/><ellipse cx="49" cy="134.5" fill="none" rx="3" ry="3" style="stroke: #038048; stroke-width: 1.0;"/><text fill="#000000" font-family="sans-serif" font-size="11" lengthAdjust="spacingAndGlyphs" text-decoration="underline" textLength="46" x="58" y="138.1348">VERIFIED</text><ellipse cx="49" cy="147.4551" fill="none" rx="3" ry="3" style="stroke: #038048; stroke-width: 1.0;"/><text fill="#000000" font-family="sans-serif" font-size="11" lengthAdjust="spacingAndGlyphs" text-decoration="underline" textLength="69" x="58" y="151.0898">INVALID_KEY</text><ellipse cx="49" cy="160.4102" fill="none" rx="3" ry="3" style="stroke: #038048; stroke-width: 1.0;"/><text fill="#000000" font-family="sans-serif" font-size="11" lengthAdjust="spacingAndGlyphs" text-decoration="underline" textLength="97" x="58" y="164.0449">SIGNATUR_ERROR</text><ellipse cx="49" cy="173.3652" fill="none" rx="3" ry="3" style="stroke: #038048; stroke-width: 1.0;"/><text fill="#000000" font-family="sans-serif" font-size="11" lengthAdjust="spacingAndGlyphs" text-decoration="underline" textLength="99" x="58" y="177">UNKNOWN_ERROR</text><line style="stroke: #A80036; stroke-width: 1.5;" x1="39" x2="183" y1="183.3203" y2="183.3203"/></a><!--MD5=[d6fbd44cf334f2c03cea4158d067195a]
class main.de.htw.berlin.s0551733.sharknetpki.SharkNetPKI--><a href="SharkNetPKI.html" target="_top" title="SharkNetPKI.html" xlink:actuate="onRequest" xlink:href="SharkNetPKI.html" xlink:show="new" xlink:title="SharkNetPKI.html" xlink:type="simple"><rect fill="#FEFECE" filter="url(#ftyw5jwf5uads)" height="216.416" id="main.de.htw.berlin.s0551733.sharknetpki.SharkNetPKI" style="stroke: #A80036; stroke-width: 1.5;" width="560" x="413" y="285"/><ellipse cx="653.75" cy="301" fill="#ADD1B2" rx="11" ry="11" style="stroke: #A80036; stroke-width: 1.0;"/><path d="M656.2231,307.1431 Q655.6421,307.4419 655.0029,307.5913 Q654.3638,307.7407 653.6582,307.7407 Q651.1514,307.7407 649.8315,306.0889 Q648.5117,304.437 648.5117,301.3159 Q648.5117,298.1865 649.8315,296.5347 Q651.1514,294.8828 653.6582,294.8828 Q654.3638,294.8828 655.0112,295.0322 Q655.6587,295.1816 656.2231,295.4805 L656.2231,298.2031 Q655.5923,297.6221 654.9988,297.3523 Q654.4053,297.0825 653.7744,297.0825 Q652.4297,297.0825 651.7449,298.1492 Q651.0601,299.2158 651.0601,301.3159 Q651.0601,303.4077 651.7449,304.4744 Q652.4297,305.541 653.7744,305.541 Q654.4053,305.541 654.9988,305.2712 Q655.5923,305.0015 656.2231,304.4204 Z "/><text fill="#000000" font-family="sans-serif" font-size="12" lengthAdjust="spacingAndGlyphs" textLength="70" x="674.25" y="305.5352">SharkNetPKI</text><line style="stroke: #A80036; stroke-width: 1.5;" x1="414" x2="972" y1="317" y2="317"/><line style="stroke: #A80036; stroke-width: 1.5;" x1="414" x2="972" y1="325" y2="325"/><ellipse cx="424" cy="336" fill="#84BE84" rx="3" ry="3" style="stroke: #038048; stroke-width: 1.0;"/><text fill="#000000" font-family="sans-serif" font-size="11" lengthAdjust="spacingAndGlyphs" text-decoration="underline" textLength="198" x="433" y="339.6348">init(char[], InputStream): SharkNetPKI</text><ellipse cx="424" cy="348.9551" fill="#84BE84" rx="3" ry="3" style="stroke: #038048; stroke-width: 1.0;"/><text fill="#000000" font-family="sans-serif" font-size="11" lengthAdjust="spacingAndGlyphs" text-decoration="underline" textLength="534" x="433" y="352.5898">init(char[], InputStream, HashSet&lt;SharkNetPublicKey&gt;, HashSet&lt;SharkNetCertificate&gt;): SharkNetPKI</text><ellipse cx="424" cy="361.9102" fill="#84BE84" rx="3" ry="3" style="stroke: #038048; stroke-width: 1.0;"/><text fill="#000000" font-family="sans-serif" font-size="11" lengthAdjust="spacingAndGlyphs" textLength="165" x="433" y="365.5449">getPublicKey(String): PublicKey</text><ellipse cx="424" cy="374.8652" fill="#84BE84" rx="3" ry="3" style="stroke: #038048; stroke-width: 1.0;"/><text fill="#000000" font-family="sans-serif" font-size="11" lengthAdjust="spacingAndGlyphs" textLength="221" x="433" y="378.5">getCertificate(String): SharkNetCertificate</text><ellipse cx="424" cy="387.8203" fill="#84BE84" rx="3" ry="3" style="stroke: #038048; stroke-width: 1.0;"/><text fill="#000000" font-family="sans-serif" font-size="11" lengthAdjust="spacingAndGlyphs" textLength="215" x="433" y="391.4551">addCertificate(SharkNetCertificate): void</text><ellipse cx="424" cy="400.7754" fill="#84BE84" rx="3" ry="3" style="stroke: #038048; stroke-width: 1.0;"/><text fill="#000000" font-family="sans-serif" font-size="11" lengthAdjust="spacingAndGlyphs" textLength="207" x="433" y="404.4102">addPublicKey(SharkNetPublicKey): void</text><ellipse cx="424" cy="413.7305" fill="#84BE84" rx="3" ry="3" style="stroke: #038048; stroke-width: 1.0;"/><text fill="#000000" font-family="sans-serif" font-size="11" lengthAdjust="spacingAndGlyphs" textLength="387" x="433" y="417.3652">generateCertificate(PublicKey, PrivateKey, String, String): X509Certificate</text><ellipse cx="424" cy="426.6855" fill="#84BE84" rx="3" ry="3" style="stroke: #038048; stroke-width: 1.0;"/><text fill="#000000" font-family="sans-serif" font-size="11" lengthAdjust="spacingAndGlyphs" textLength="172" x="433" y="430.3203">getMyOwnPublicKey(): PublicKey</text><ellipse cx="424" cy="439.6406" fill="#84BE84" rx="3" ry="3" style="stroke: #038048; stroke-width: 1.0;"/><text fill="#000000" font-family="sans-serif" font-size="11" lengthAdjust="spacingAndGlyphs" textLength="316" x="433" y="443.2754">verifySignature(Certificate, PublicKey): VerifySignaturResult</text><ellipse cx="424" cy="452.5957" fill="#84BE84" rx="3" ry="3" style="stroke: #038048; stroke-width: 1.0;"/><text fill="#000000" font-family="sans-serif" font-size="11" lengthAdjust="spacingAndGlyphs" textLength="227" x="433" y="456.2305">removePublicKey(SharkNetPublicKey): void</text><ellipse cx="424" cy="465.5508" fill="#84BE84" rx="3" ry="3" style="stroke: #038048; stroke-width: 1.0;"/><text fill="#000000" font-family="sans-serif" font-size="11" lengthAdjust="spacingAndGlyphs" textLength="235" x="433" y="469.1855">removeCertificate(SharkNetCertificate): void</text><ellipse cx="424" cy="478.5059" fill="#84BE84" rx="3" ry="3" style="stroke: #038048; stroke-width: 1.0;"/><text fill="#000000" font-family="sans-serif" font-size="11" lengthAdjust="spacingAndGlyphs" textLength="141" x="433" y="482.1406">getPrivateKey(): PrivateKey</text><ellipse cx="424" cy="491.4609" fill="#84BE84" rx="3" ry="3" style="stroke: #038048; stroke-width: 1.0;"/><text fill="#000000" font-family="sans-serif" font-size="11" lengthAdjust="spacingAndGlyphs" textLength="196" x="433" y="495.0957">persistKeyStore(OutputStream): void</text></a><!--MD5=[887eea0ea096632bdd5f1a1d6bd407ea]
link main.de.htw.berlin.s0551733.sharknetpki.PKI to main.de.htw.berlin.s0551733.sharknetpki.User--><path d="M219.5,220.3 C175.77,241.24 139.09,263.93 127,285 C42.63,432.09 62.85,526.73 161,665 C197.2,716 259.42,751.32 308.63,772.92 " fill="none" id="main.de.htw.berlin.s0551733.sharknetpki.PKI-&gt;main.de.htw.berlin.s0551733.sharknetpki.User" style="stroke: #A80036; stroke-width: 1.0;"/><polygon fill="#A80036" points="313.35,774.97,306.6995,767.7056,308.7669,772.9712,303.5014,775.0385,313.35,774.97" style="stroke: #A80036; stroke-width: 1.0;"/><text fill="#000000" font-family="sans-serif" font-size="13" lengthAdjust="spacingAndGlyphs" textLength="34" x="94" y="544.5684">users</text><text fill="#000000" font-family="sans-serif" font-size="13" lengthAdjust="spacingAndGlyphs" textLength="6" x="299.5133" y="768.9501">*</text><!--MD5=[5d60bbf4769783070cf39e21aba95915]
link main.de.htw.berlin.s0551733.sharknetpki.PKI to main.de.htw.berlin.s0551733.sharknetpki.SharkNetPublicKey--><path d="M221.97,224.22 C199.74,241.1 180.1,261.19 166,285 C117.08,367.6 135.07,410.12 166,501 C175.17,527.95 193.15,553.57 210.8,574.12 " fill="none" id="main.de.htw.berlin.s0551733.sharknetpki.PKI-&gt;main.de.htw.berlin.s0551733.sharknetpki.SharkNetPublicKey" style="stroke: #A80036; stroke-width: 1.0;"/><polygon fill="#A80036" points="214.09,577.89,211.194,568.4765,210.8056,574.12,205.1621,573.7316,214.09,577.89" style="stroke: #A80036; stroke-width: 1.0;"/><text fill="#000000" font-family="sans-serif" font-size="13" lengthAdjust="spacingAndGlyphs" textLength="124" x="167" y="398.0684">sharkNetPublicKeys</text><text fill="#000000" font-family="sans-serif" font-size="13" lengthAdjust="spacingAndGlyphs" textLength="6" x="200.6137" y="567.3482">*</text><!--MD5=[24d9b4c97d9bd40a6bedbe3185061f63]
link main.de.htw.berlin.s0551733.sharknetpki.PKI to main.de.htw.berlin.s0551733.sharknetpki.SharkNetCertificate--><path d="M354.82,224.04 C342.15,242.9 330.83,263.71 324,285 C294.66,376.41 291.41,410.7 324,501 C337.31,537.87 369.85,567.45 399.42,587.95 " fill="none" id="main.de.htw.berlin.s0551733.sharknetpki.PKI-&gt;main.de.htw.berlin.s0551733.sharknetpki.SharkNetCertificate" style="stroke: #A80036; stroke-width: 1.0;"/><polygon fill="#A80036" points="403.75,590.91,398.5664,582.5356,399.6186,588.0938,394.0604,589.1459,403.75,590.91" style="stroke: #A80036; stroke-width: 1.0;"/><text fill="#000000" font-family="sans-serif" font-size="13" lengthAdjust="spacingAndGlyphs" textLength="70" x="325" y="398.0684">certificates</text><text fill="#000000" font-family="sans-serif" font-size="13" lengthAdjust="spacingAndGlyphs" textLength="6" x="385.4453" y="580.1851">*</text><!--MD5=[6b9fd1de301d96c77356194cd755d223]
link main.de.htw.berlin.s0551733.sharknetpki.SharkNetPublicKey to main.de.htw.berlin.s0551733.sharknetpki.User--><path d="M288.02,665.35 C306.45,691.67 330.09,725.4 349.04,752.46 " fill="none" id="main.de.htw.berlin.s0551733.sharknetpki.SharkNetPublicKey-&gt;main.de.htw.berlin.s0551733.sharknetpki.User" style="stroke: #A80036; stroke-width: 1.0;"/><polygon fill="#A80036" points="352.04,756.74,350.1535,747.0735,349.1717,752.6445,343.6007,751.6627,352.04,756.74" style="stroke: #A80036; stroke-width: 1.0;"/><text fill="#000000" font-family="sans-serif" font-size="13" lengthAdjust="spacingAndGlyphs" textLength="38" x="332" y="716.0684">owner</text><!--MD5=[02a1e97ae0ff53d52b194ba6d13c0f20]
link main.de.htw.berlin.s0551733.sharknetpki.SharkNetCertificate to main.de.htw.berlin.s0551733.sharknetpki.User--><path d="M444.45,652.13 C432.88,679.42 415.52,720.39 402.04,752.21 " fill="none" id="main.de.htw.berlin.s0551733.sharknetpki.SharkNetCertificate-&gt;main.de.htw.berlin.s0551733.sharknetpki.User" style="stroke: #A80036; stroke-width: 1.0;"/><polygon fill="#A80036" points="400.08,756.84,407.2842,750.1244,402.0375,752.2391,399.9228,746.9924,400.08,756.84" style="stroke: #A80036; stroke-width: 1.0;"/><text fill="#000000" font-family="sans-serif" font-size="13" lengthAdjust="spacingAndGlyphs" textLength="46" x="427" y="708.5684">subject</text><text fill="#000000" font-family="sans-serif" font-size="13" lengthAdjust="spacingAndGlyphs" textLength="39" x="430.5" y="723.8789">signer</text><!--MD5=[7ec80491792ba85dd686b3f87541b013]
reverse link main.de.htw.berlin.s0551733.sharknetpki.PKI to main.de.htw.berlin.s0551733.sharknetpki.SharkNetPKI--><path d="M528.22,238.02 C544.56,253.29 561.56,269.17 578.17,284.7 " fill="none" id="main.de.htw.berlin.s0551733.sharknetpki.PKI&lt;-main.de.htw.berlin.s0551733.sharknetpki.SharkNetPKI" style="stroke: #A80036; stroke-width: 1.0; stroke-dasharray: 7.0,7.0;"/><polygon fill="none" points="523.26,242.97,513.43,224.2,532.82,232.74,523.26,242.97" style="stroke: #A80036; stroke-width: 1.0;"/><!--MD5=[0ac0c72a300b26120dc355531855a68f]
link main.de.htw.berlin.s0551733.sharknetpki.SharkNetPKI to main.de.htw.berlin.s0551733.sharknetpki.SharkNetPKI--><path d="M973.05,373.49 C994.67,377.81 1008,384.31 1008,393 C1008,401.01 996.67,407.17 977.96,411.46 " fill="none" id="main.de.htw.berlin.s0551733.sharknetpki.SharkNetPKI-&gt;main.de.htw.berlin.s0551733.sharknetpki.SharkNetPKI" style="stroke: #A80036; stroke-width: 1.0;"/><polygon fill="#A80036" points="973.05,412.51,982.6867,414.5431,977.9398,411.4663,981.0167,406.7194,973.05,412.51" style="stroke: #A80036; stroke-width: 1.0;"/><text fill="#000000" font-family="sans-serif" font-size="13" lengthAdjust="spacingAndGlyphs" textLength="53" x="1014" y="398.0684">instance</text><!--MD5=[108e999dda967aa7a5a56da3f9f28548]
link main.de.htw.berlin.s0551733.sharknetpki.SharkNetPKI to main.de.htw.berlin.s0551733.sharknetpki.User--><path d="M653.99,501.23 C631.3,554.22 599.03,616.92 558,665 C528.61,699.43 489.04,730.64 454.86,754.3 " fill="none" id="main.de.htw.berlin.s0551733.sharknetpki.SharkNetPKI-&gt;main.de.htw.berlin.s0551733.sharknetpki.User" style="stroke: #A80036; stroke-width: 1.0;"/><polygon fill="#A80036" points="450.72,757.15,460.4025,755.3474,454.8402,754.3174,455.8703,748.7551,450.72,757.15" style="stroke: #A80036; stroke-width: 1.0;"/><text fill="#000000" font-family="sans-serif" font-size="13" lengthAdjust="spacingAndGlyphs" textLength="34" x="615" y="626.5684">users</text><text fill="#000000" font-family="sans-serif" font-size="13" lengthAdjust="spacingAndGlyphs" textLength="6" x="458.5644" y="749.181">*</text><!--MD5=[58ae055c41e030718dd5c790167bc5d1]
link main.de.htw.berlin.s0551733.sharknetpki.SharkNetPKI to main.de.htw.berlin.s0551733.sharknetpki.SharkNetPublicKey--><path d="M456.17,501.08 C436.67,510.89 417.4,520.93 399,531 C374.46,544.43 348.38,560.46 325.42,575.21 " fill="none" id="main.de.htw.berlin.s0551733.sharknetpki.SharkNetPKI-&gt;main.de.htw.berlin.s0551733.sharknetpki.SharkNetPublicKey" style="stroke: #A80036; stroke-width: 1.0;"/><polygon fill="#A80036" points="321.17,577.95,330.9036,576.4479,325.3759,575.2462,326.5776,569.7185,321.17,577.95" style="stroke: #A80036; stroke-width: 1.0;"/><text fill="#000000" font-family="sans-serif" font-size="13" lengthAdjust="spacingAndGlyphs" textLength="124" x="400" y="544.5684">sharkNetPublicKeys</text><text fill="#000000" font-family="sans-serif" font-size="13" lengthAdjust="spacingAndGlyphs" textLength="6" x="325.1357" y="567.1001">*</text><!--MD5=[45fe2f618c9bd3c7a0a8b4c0c18c270f]
link main.de.htw.berlin.s0551733.sharknetpki.SharkNetPKI to main.de.htw.berlin.s0551733.sharknetpki.SharkNetCertificate--><path d="M581.22,501.28 C548.65,532.54 515.45,564.41 491.57,587.32 " fill="none" id="main.de.htw.berlin.s0551733.sharknetpki.SharkNetPKI-&gt;main.de.htw.berlin.s0551733.sharknetpki.SharkNetCertificate" style="stroke: #A80036; stroke-width: 1.0;"/><polygon fill="#A80036" points="487.82,590.92,497.0887,587.5896,491.4332,587.4639,491.5589,581.8084,487.82,590.92" style="stroke: #A80036; stroke-width: 1.0;"/><text fill="#000000" font-family="sans-serif" font-size="13" lengthAdjust="spacingAndGlyphs" textLength="70" x="547" y="544.5684">certificates</text><text fill="#000000" font-family="sans-serif" font-size="13" lengthAdjust="spacingAndGlyphs" textLength="6" x="487.9056" y="580.1972">*</text><text fill="#888888" font-family="sans-serif" font-size="10" lengthAdjust="spacingAndGlyphs" textLength="182" x="462" y="895.668">UMLDoclet 2.0.7, PlantUML 1.2019.12</text><!--MD5=[690613d0429cbdb285982adc7215520f]
@startuml
    namespace main.de.htw.berlin.s0551733.sharknetpki {

        interface PKI [[PKI.html]] {
            {abstract} +getPublicKey(String): PublicKey
            {abstract} +getCertificate(String): SharkNetCertificate
            {abstract} +addCertificate(SharkNetCertificate): void
            {abstract} +addPublicKey(SharkNetPublicKey): void
            {abstract} +verifySignature(Certificate, PublicKey): VerifySignaturResult
            {abstract} +removePublicKey(SharkNetPublicKey): void
            {abstract} +removeCertificate(SharkNetCertificate): void
            {abstract} +getMyOwnPublicKey(): PublicKey
            {abstract} +generateCertificate(PublicKey, PrivateKey, String, String): X509Certificate
        }

        interface SharkNetPublicKey [[SharkNetPublicKey.html]] {
            {abstract} +setAlias(String): void
            {abstract} +getPublicKey(): PublicKey
            {abstract} +getExpirationDate(): Date
        }

        interface User [[User.html]] {
            {abstract} +getUuid(): String
            {abstract} +getAlias(): String
            {abstract} +setAlias(String): void
        }

        interface SharkNetCertificate [[SharkNetCertificate.html]] {
            {abstract} +getCertificate(): Certificate
        }

        enum VerifySignaturResult [[VerifySignaturResult.html]] {
            {static} +VERIFIED
            {static} +INVALID_KEY
            {static} +SIGNATUR_ERROR
            {static} +UNKNOWN_ERROR
        }

        class SharkNetPKI [[SharkNetPKI.html]] {
            {static} +init(char[], InputStream): SharkNetPKI
            {static} +init(char[], InputStream, HashSet<SharkNetPublicKey>, HashSet<SharkNetCertificate>): SharkNetPKI
            +getPublicKey(String): PublicKey
            +getCertificate(String): SharkNetCertificate
            +addCertificate(SharkNetCertificate): void
            +addPublicKey(SharkNetPublicKey): void
            +generateCertificate(PublicKey, PrivateKey, String, String): X509Certificate
            +getMyOwnPublicKey(): PublicKey
            +verifySignature(Certificate, PublicKey): VerifySignaturResult
            +removePublicKey(SharkNetPublicKey): void
            +removeCertificate(SharkNetCertificate): void
            +getPrivateKey(): PrivateKey
            +persistKeyStore(OutputStream): void
        }

        PKI - -> "*" User: users
        PKI - -> "*" SharkNetPublicKey: sharkNetPublicKeys
        PKI - -> "*" SharkNetCertificate: certificates
        SharkNetPublicKey - -> User: owner
        SharkNetCertificate - -> User: subject\nsigner
        PKI <|.. SharkNetPKI
        SharkNetPKI - -> SharkNetPKI: instance
        SharkNetPKI - -> "*" User: users
        SharkNetPKI - -> "*" SharkNetPublicKey: sharkNetPublicKeys
        SharkNetPKI - -> "*" SharkNetCertificate: certificates
    }

    center footer UMLDoclet 2.0.7, PlantUML 1.2019.12
@enduml

PlantUML version 1.2019.12(Sun Nov 03 11:24:54 CET 2019)
(APACHE source distribution)
Java Runtime: OpenJDK Runtime Environment
JVM: OpenJDK 64-Bit Server VM
Java Version: 13.0.1+9
Operating System: Mac OS X
Default Encoding: UTF-8
Language: en
Country: DE
--></g></svg>