<?xml version="1.0" encoding="UTF-8" standalone="no"?><svg xmlns="http://www.w3.org/2000/svg" xmlns:xlink="http://www.w3.org/1999/xlink" contentScriptType="application/ecmascript" contentStyleType="text/css" height="412px" preserveAspectRatio="none" style="width:1095px;height:412px;" version="1.1" viewBox="0 0 1095 412" width="1095px" zoomAndPan="magnify"><defs><filter height="300%" id="fx8cg3gg5r1f" width="300%" x="-1" y="-1"><feGaussianBlur result="blurOut" stdDeviation="2.0"/><feColorMatrix in="blurOut" result="blurOut2" type="matrix" values="0 0 0 0 0 0 0 0 0 0 0 0 0 0 0 0 0 0 .4 0"/><feOffset dx="4.0" dy="4.0" in="blurOut2" result="blurOut3"/><feBlend in="SourceGraphic" in2="blurOut3" mode="normal"/></filter></defs><g><!--MD5=[b160180e6bb93d15191906ae081bce6b]
cluster main.de.htw.berlin.s0551733.sharknetpki.impl--><polygon fill="#FFFFFF" filter="url(#fx8cg3gg5r1f)" points="22,199,358,199,365,221.4883,1073,221.4883,1073,363,22,363,22,199" style="stroke: #000000; stroke-width: 1.5;"/><line style="stroke: #000000; stroke-width: 1.5;" x1="22" x2="365" y1="221.4883" y2="221.4883"/><text fill="#000000" font-family="sans-serif" font-size="14" font-weight="bold" lengthAdjust="spacingAndGlyphs" textLength="330" x="26" y="214.5352">main.de.htw.berlin.s0551733.sharknetpki.impl</text><!--MD5=[47579e584d4bbcd76f06b338ea13b746]
cluster main.de.htw.berlin.s0551733.sharknetpki--><polygon fill="#FFFFFF" filter="url(#fx8cg3gg5r1f)" points="81,24,381,24,388,46.4883,648,46.4883,648,175,81,175,81,24" style="stroke: #000000; stroke-width: 1.5;"/><line style="stroke: #000000; stroke-width: 1.5;" x1="81" x2="388" y1="46.4883" y2="46.4883"/><text fill="#000000" font-family="sans-serif" font-size="14" font-weight="bold" lengthAdjust="spacingAndGlyphs" textLength="294" x="85" y="39.5352">main.de.htw.berlin.s0551733.sharknetpki</text><!--MD5=[0d852700fdad35b7061d461d6907a324]
cluster java.io--><polygon fill="#FFFFFF" filter="url(#fx8cg3gg5r1f)" points="672,50,724,50,731,72.4883,802,72.4883,802,149,672,149,672,50" style="stroke: #000000; stroke-width: 1.5;"/><line style="stroke: #000000; stroke-width: 1.5;" x1="672" x2="731" y1="72.4883" y2="72.4883"/><text fill="#000000" font-family="sans-serif" font-size="14" font-weight="bold" lengthAdjust="spacingAndGlyphs" textLength="46" x="676" y="65.5352">java.io</text><!--MD5=[aa8f7b917213fcc1c2766e2d59b49067]
cluster java.lang--><polygon fill="#FFFFFF" filter="url(#fx8cg3gg5r1f)" points="901,50,970,50,977,72.4883,1021,72.4883,1021,149,901,149,901,50" style="stroke: #000000; stroke-width: 1.5;"/><line style="stroke: #000000; stroke-width: 1.5;" x1="901" x2="977" y1="72.4883" y2="72.4883"/><text fill="#000000" font-family="sans-serif" font-size="14" font-weight="bold" lengthAdjust="spacingAndGlyphs" textLength="63" x="905" y="65.5352">java.lang</text><!--MD5=[248ff8f2f5d3cd33063c98e5bf0fb82a]
class main.de.htw.berlin.s0551733.sharknetpki.impl.SharkNetUser--><a href="SharkNetUser.html" target="_top" title="SharkNetUser.html" xlink:actuate="onRequest" xlink:href="SharkNetUser.html" xlink:show="new" xlink:title="SharkNetUser.html" xlink:type="simple"><rect fill="#FEFECE" filter="url(#fx8cg3gg5r1f)" height="99.8203" id="main.de.htw.berlin.s0551733.sharknetpki.impl.SharkNetUser" style="stroke: #A80036; stroke-width: 1.5;" width="177" x="653.5" y="240.5"/><ellipse cx="698.75" cy="256.5" fill="#ADD1B2" rx="11" ry="11" style="stroke: #A80036; stroke-width: 1.0;"/><path d="M701.2231,262.6431 Q700.6421,262.9419 700.0029,263.0913 Q699.3638,263.2407 698.6582,263.2407 Q696.1514,263.2407 694.8315,261.5889 Q693.5117,259.937 693.5117,256.8159 Q693.5117,253.6865 694.8315,252.0347 Q696.1514,250.3828 698.6582,250.3828 Q699.3638,250.3828 700.0112,250.5322 Q700.6587,250.6816 701.2231,250.9805 L701.2231,253.7031 Q700.5923,253.1221 699.9988,252.8523 Q699.4053,252.5825 698.7744,252.5825 Q697.4297,252.5825 696.7449,253.6492 Q696.0601,254.7158 696.0601,256.8159 Q696.0601,258.9077 696.7449,259.9744 Q697.4297,261.041 698.7744,261.041 Q699.4053,261.041 699.9988,260.7712 Q700.5923,260.5015 701.2231,259.9204 Z "/><text fill="#000000" font-family="sans-serif" font-size="12" lengthAdjust="spacingAndGlyphs" textLength="78" x="719.25" y="261.0352">SharkNetUser</text><line style="stroke: #A80036; stroke-width: 1.5;" x1="654.5" x2="829.5" y1="272.5" y2="272.5"/><line style="stroke: #A80036; stroke-width: 1.5;" x1="654.5" x2="829.5" y1="280.5" y2="280.5"/><ellipse cx="664.5" cy="291.5" fill="#84BE84" rx="3" ry="3" style="stroke: #038048; stroke-width: 1.0;"/><text fill="#000000" font-family="sans-serif" font-size="11" lengthAdjust="spacingAndGlyphs" textLength="151" x="673.5" y="295.1348">SharkNetUser(String, String)</text><ellipse cx="664.5" cy="304.4551" fill="#84BE84" rx="3" ry="3" style="stroke: #038048; stroke-width: 1.0;"/><text fill="#000000" font-family="sans-serif" font-size="11" lengthAdjust="spacingAndGlyphs" textLength="88" x="673.5" y="308.0898">getUuid(): String</text><ellipse cx="664.5" cy="317.4102" fill="#84BE84" rx="3" ry="3" style="stroke: #038048; stroke-width: 1.0;"/><text fill="#000000" font-family="sans-serif" font-size="11" lengthAdjust="spacingAndGlyphs" textLength="89" x="673.5" y="321.0449">getAlias(): String</text><ellipse cx="664.5" cy="330.3652" fill="#84BE84" rx="3" ry="3" style="stroke: #038048; stroke-width: 1.0;"/><text fill="#000000" font-family="sans-serif" font-size="11" lengthAdjust="spacingAndGlyphs" textLength="111" x="673.5" y="334">setAlias(String): void</text></a><!--MD5=[28141c70482ec9c795ea52a096cc6f63]
class main.de.htw.berlin.s0551733.sharknetpki.impl.SharkNetCertificateImpl--><a href="SharkNetCertificateImpl.html" target="_top" title="SharkNetCertificateImpl.html" xlink:actuate="onRequest" xlink:href="SharkNetCertificateImpl.html" xlink:show="new" xlink:title="SharkNetCertificateImpl.html" xlink:type="simple"><rect fill="#FEFECE" filter="url(#fx8cg3gg5r1f)" height="99.8203" id="main.de.htw.berlin.s0551733.sharknetpki.impl.SharkNetCertificateImpl" style="stroke: #A80036; stroke-width: 1.5;" width="277" x="341.5" y="240.5"/><ellipse cx="408.25" cy="256.5" fill="#ADD1B2" rx="11" ry="11" style="stroke: #A80036; stroke-width: 1.0;"/><path d="M410.7231,262.6431 Q410.1421,262.9419 409.5029,263.0913 Q408.8638,263.2407 408.1582,263.2407 Q405.6514,263.2407 404.3315,261.5889 Q403.0117,259.937 403.0117,256.8159 Q403.0117,253.6865 404.3315,252.0347 Q405.6514,250.3828 408.1582,250.3828 Q408.8638,250.3828 409.5112,250.5322 Q410.1587,250.6816 410.7231,250.9805 L410.7231,253.7031 Q410.0923,253.1221 409.4988,252.8523 Q408.9053,252.5825 408.2744,252.5825 Q406.9297,252.5825 406.2449,253.6492 Q405.5601,254.7158 405.5601,256.8159 Q405.5601,258.9077 406.2449,259.9744 Q406.9297,261.041 408.2744,261.041 Q408.9053,261.041 409.4988,260.7712 Q410.0923,260.5015 410.7231,259.9204 Z "/><text fill="#000000" font-family="sans-serif" font-size="12" lengthAdjust="spacingAndGlyphs" textLength="135" x="428.75" y="261.0352">SharkNetCertificateImpl</text><line style="stroke: #A80036; stroke-width: 1.5;" x1="342.5" x2="617.5" y1="272.5" y2="272.5"/><line style="stroke: #A80036; stroke-width: 1.5;" x1="342.5" x2="617.5" y1="280.5" y2="280.5"/><ellipse cx="352.5" cy="291.5" fill="#84BE84" rx="3" ry="3" style="stroke: #038048; stroke-width: 1.0;"/><text fill="#000000" font-family="sans-serif" font-size="11" lengthAdjust="spacingAndGlyphs" textLength="251" x="361.5" y="295.1348">SharkNetCertificateImpl(User, Certificate, User)</text><ellipse cx="352.5" cy="304.4551" fill="#84BE84" rx="3" ry="3" style="stroke: #038048; stroke-width: 1.0;"/><text fill="#000000" font-family="sans-serif" font-size="11" lengthAdjust="spacingAndGlyphs" textLength="95" x="361.5" y="308.0898">getSubject(): User</text><ellipse cx="352.5" cy="317.4102" fill="#84BE84" rx="3" ry="3" style="stroke: #038048; stroke-width: 1.0;"/><text fill="#000000" font-family="sans-serif" font-size="11" lengthAdjust="spacingAndGlyphs" textLength="141" x="361.5" y="321.0449">getCertificate(): Certificate</text><ellipse cx="352.5" cy="330.3652" fill="#84BE84" rx="3" ry="3" style="stroke: #038048; stroke-width: 1.0;"/><text fill="#000000" font-family="sans-serif" font-size="11" lengthAdjust="spacingAndGlyphs" textLength="90" x="361.5" y="334">getSigner(): User</text></a><!--MD5=[3ff316aa0cc2fa0ae36c6a824299a683]
class main.de.htw.berlin.s0551733.sharknetpki.impl.SharkNetException--><a href="SharkNetException.html" target="_top" title="SharkNetException.html" xlink:actuate="onRequest" xlink:href="SharkNetException.html" xlink:show="new" xlink:title="SharkNetException.html" xlink:type="simple"><rect fill="#FEFECE" filter="url(#fx8cg3gg5r1f)" height="60.9551" id="main.de.htw.berlin.s0551733.sharknetpki.impl.SharkNetException" style="stroke: #A80036; stroke-width: 1.5;" width="191" x="865.5" y="260"/><ellipse cx="903.45" cy="276" fill="#ADD1B2" rx="11" ry="11" style="stroke: #A80036; stroke-width: 1.0;"/><path d="M905.9231,282.1431 Q905.3421,282.4419 904.7029,282.5913 Q904.0638,282.7407 903.3582,282.7407 Q900.8514,282.7407 899.5315,281.0889 Q898.2117,279.437 898.2117,276.3159 Q898.2117,273.1865 899.5315,271.5347 Q900.8514,269.8828 903.3582,269.8828 Q904.0638,269.8828 904.7112,270.0322 Q905.3587,270.1816 905.9231,270.4805 L905.9231,273.2031 Q905.2923,272.6221 904.6988,272.3523 Q904.1053,272.0825 903.4744,272.0825 Q902.1297,272.0825 901.4449,273.1492 Q900.7601,274.2158 900.7601,276.3159 Q900.7601,278.4077 901.4449,279.4744 Q902.1297,280.541 903.4744,280.541 Q904.1053,280.541 904.6988,280.2712 Q905.2923,280.0015 905.9231,279.4204 Z "/><text fill="#000000" font-family="sans-serif" font-size="12" lengthAdjust="spacingAndGlyphs" textLength="108" x="922.55" y="280.5352">SharkNetException</text><line style="stroke: #A80036; stroke-width: 1.5;" x1="866.5" x2="1055.5" y1="292" y2="292"/><line style="stroke: #A80036; stroke-width: 1.5;" x1="866.5" x2="1055.5" y1="300" y2="300"/><ellipse cx="876.5" cy="311" fill="#84BE84" rx="3" ry="3" style="stroke: #038048; stroke-width: 1.0;"/><text fill="#000000" font-family="sans-serif" font-size="11" lengthAdjust="spacingAndGlyphs" textLength="165" x="885.5" y="314.6348">SharkNetException(Throwable)</text></a><!--MD5=[62a5ba9be24038e1ff0f23fbf8259c1b]
class main.de.htw.berlin.s0551733.sharknetpki.impl.SharkNetPublicKeyImpl--><a href="SharkNetPublicKeyImpl.html" target="_top" title="SharkNetPublicKeyImpl.html" xlink:actuate="onRequest" xlink:href="SharkNetPublicKeyImpl.html" xlink:show="new" xlink:title="SharkNetPublicKeyImpl.html" xlink:type="simple"><rect fill="#FEFECE" filter="url(#fx8cg3gg5r1f)" height="112.7754" id="main.de.htw.berlin.s0551733.sharknetpki.impl.SharkNetPublicKeyImpl" style="stroke: #A80036; stroke-width: 1.5;" width="268" x="38" y="234"/><ellipse cx="101.75" cy="250" fill="#ADD1B2" rx="11" ry="11" style="stroke: #A80036; stroke-width: 1.0;"/><path d="M104.2231,256.1431 Q103.6421,256.4419 103.0029,256.5913 Q102.3638,256.7407 101.6582,256.7407 Q99.1514,256.7407 97.8315,255.0889 Q96.5117,253.437 96.5117,250.3159 Q96.5117,247.1865 97.8315,245.5347 Q99.1514,243.8828 101.6582,243.8828 Q102.3638,243.8828 103.0112,244.0322 Q103.6587,244.1816 104.2231,244.4805 L104.2231,247.2031 Q103.5923,246.6221 102.9988,246.3523 Q102.4053,246.0825 101.7744,246.0825 Q100.4297,246.0825 99.7449,247.1492 Q99.0601,248.2158 99.0601,250.3159 Q99.0601,252.4077 99.7449,253.4744 Q100.4297,254.541 101.7744,254.541 Q102.4053,254.541 102.9988,254.2712 Q103.5923,254.0015 104.2231,253.4204 Z "/><text fill="#000000" font-family="sans-serif" font-size="12" lengthAdjust="spacingAndGlyphs" textLength="132" x="122.25" y="254.5352">SharkNetPublicKeyImpl</text><line style="stroke: #A80036; stroke-width: 1.5;" x1="39" x2="305" y1="266" y2="266"/><line style="stroke: #A80036; stroke-width: 1.5;" x1="39" x2="305" y1="274" y2="274"/><ellipse cx="49" cy="285" fill="#84BE84" rx="3" ry="3" style="stroke: #038048; stroke-width: 1.0;"/><text fill="#000000" font-family="sans-serif" font-size="11" lengthAdjust="spacingAndGlyphs" textLength="242" x="58" y="288.6348">SharkNetPublicKeyImpl(User, PublicKey, Date)</text><ellipse cx="49" cy="297.9551" fill="#84BE84" rx="3" ry="3" style="stroke: #038048; stroke-width: 1.0;"/><text fill="#000000" font-family="sans-serif" font-size="11" lengthAdjust="spacingAndGlyphs" textLength="91" x="58" y="301.5898">getOwner(): User</text><ellipse cx="49" cy="310.9102" fill="#84BE84" rx="3" ry="3" style="stroke: #038048; stroke-width: 1.0;"/><text fill="#000000" font-family="sans-serif" font-size="11" lengthAdjust="spacingAndGlyphs" textLength="111" x="58" y="314.5449">setAlias(String): void</text><ellipse cx="49" cy="323.8652" fill="#84BE84" rx="3" ry="3" style="stroke: #038048; stroke-width: 1.0;"/><text fill="#000000" font-family="sans-serif" font-size="11" lengthAdjust="spacingAndGlyphs" textLength="133" x="58" y="327.5">getPublicKey(): PublicKey</text><ellipse cx="49" cy="336.8203" fill="#84BE84" rx="3" ry="3" style="stroke: #038048; stroke-width: 1.0;"/><text fill="#000000" font-family="sans-serif" font-size="11" lengthAdjust="spacingAndGlyphs" textLength="134" x="58" y="340.4551">getExpirationDate(): Date</text></a><!--MD5=[1492e09b876e805866db034bb89ce4ce]
class main.de.htw.berlin.s0551733.sharknetpki.User--><a href="../User.html" target="_top" title="../User.html" xlink:actuate="onRequest" xlink:href="../User.html" xlink:show="new" xlink:title="../User.html" xlink:type="simple"><rect fill="#FEFECE" filter="url(#fx8cg3gg5r1f)" height="86.8652" id="main.de.htw.berlin.s0551733.sharknetpki.User" style="stroke: #A80036; stroke-width: 1.5;" width="137" x="494.5" y="65.5"/><ellipse cx="545.75" cy="81.5" fill="#B4A7E5" rx="11" ry="11" style="stroke: #A80036; stroke-width: 1.0;"/><path d="M542.1777,77.7651 L542.1777,75.6069 L549.5571,75.6069 L549.5571,77.7651 L547.0918,77.7651 L547.0918,85.8418 L549.5571,85.8418 L549.5571,88 L542.1777,88 L542.1777,85.8418 L544.6431,85.8418 L544.6431,77.7651 Z "/><text fill="#000000" font-family="sans-serif" font-size="12" font-style="italic" lengthAdjust="spacingAndGlyphs" textLength="26" x="566.25" y="86.0352">User</text><line style="stroke: #A80036; stroke-width: 1.5;" x1="495.5" x2="630.5" y1="97.5" y2="97.5"/><line style="stroke: #A80036; stroke-width: 1.5;" x1="495.5" x2="630.5" y1="105.5" y2="105.5"/><ellipse cx="505.5" cy="116.5" fill="#84BE84" rx="3" ry="3" style="stroke: #038048; stroke-width: 1.0;"/><text fill="#000000" font-family="sans-serif" font-size="11" font-style="italic" lengthAdjust="spacingAndGlyphs" textLength="88" x="514.5" y="120.1348">getUuid(): String</text><ellipse cx="505.5" cy="129.4551" fill="#84BE84" rx="3" ry="3" style="stroke: #038048; stroke-width: 1.0;"/><text fill="#000000" font-family="sans-serif" font-size="11" font-style="italic" lengthAdjust="spacingAndGlyphs" textLength="89" x="514.5" y="133.0898">getAlias(): String</text><ellipse cx="505.5" cy="142.4102" fill="#84BE84" rx="3" ry="3" style="stroke: #038048; stroke-width: 1.0;"/><text fill="#000000" font-family="sans-serif" font-size="11" font-style="italic" lengthAdjust="spacingAndGlyphs" textLength="111" x="514.5" y="146.0449">setAlias(String): void</text></a><!--MD5=[30997c89ce02389e1e9998bcfe6d41c7]
class main.de.htw.berlin.s0551733.sharknetpki.SharkNetCertificate--><a href="../SharkNetCertificate.html" target="_top" title="../SharkNetCertificate.html" xlink:actuate="onRequest" xlink:href="../SharkNetCertificate.html" xlink:show="new" xlink:title="../SharkNetCertificate.html" xlink:type="simple"><rect fill="#FEFECE" filter="url(#fx8cg3gg5r1f)" height="86.8652" id="main.de.htw.berlin.s0551733.sharknetpki.SharkNetCertificate" style="stroke: #A80036; stroke-width: 1.5;" width="167" x="292.5" y="65.5"/><ellipse cx="318.75" cy="81.5" fill="#B4A7E5" rx="11" ry="11" style="stroke: #A80036; stroke-width: 1.0;"/><path d="M315.1777,77.7651 L315.1777,75.6069 L322.5571,75.6069 L322.5571,77.7651 L320.0918,77.7651 L320.0918,85.8418 L322.5571,85.8418 L322.5571,88 L315.1777,88 L315.1777,85.8418 L317.6431,85.8418 L317.6431,77.7651 Z "/><text fill="#000000" font-family="sans-serif" font-size="12" font-style="italic" lengthAdjust="spacingAndGlyphs" textLength="110" x="335.25" y="86.0352">SharkNetCertificate</text><line style="stroke: #A80036; stroke-width: 1.5;" x1="293.5" x2="458.5" y1="97.5" y2="97.5"/><line style="stroke: #A80036; stroke-width: 1.5;" x1="293.5" x2="458.5" y1="105.5" y2="105.5"/><ellipse cx="303.5" cy="116.5" fill="#84BE84" rx="3" ry="3" style="stroke: #038048; stroke-width: 1.0;"/><text fill="#000000" font-family="sans-serif" font-size="11" font-style="italic" lengthAdjust="spacingAndGlyphs" textLength="95" x="312.5" y="120.1348">getSubject(): User</text><ellipse cx="303.5" cy="129.4551" fill="#84BE84" rx="3" ry="3" style="stroke: #038048; stroke-width: 1.0;"/><text fill="#000000" font-family="sans-serif" font-size="11" font-style="italic" lengthAdjust="spacingAndGlyphs" textLength="141" x="312.5" y="133.0898">getCertificate(): Certificate</text><ellipse cx="303.5" cy="142.4102" fill="#84BE84" rx="3" ry="3" style="stroke: #038048; stroke-width: 1.0;"/><text fill="#000000" font-family="sans-serif" font-size="11" font-style="italic" lengthAdjust="spacingAndGlyphs" textLength="90" x="312.5" y="146.0449">getSigner(): User</text></a><!--MD5=[60e28f1b1fa46ac7f70619ce7b2847dc]
class main.de.htw.berlin.s0551733.sharknetpki.SharkNetPublicKey--><a href="../SharkNetPublicKey.html" target="_top" title="../SharkNetPublicKey.html" xlink:actuate="onRequest" xlink:href="../SharkNetPublicKey.html" xlink:show="new" xlink:title="../SharkNetPublicKey.html" xlink:type="simple"><rect fill="#FEFECE" filter="url(#fx8cg3gg5r1f)" height="99.8203" id="main.de.htw.berlin.s0551733.sharknetpki.SharkNetPublicKey" style="stroke: #A80036; stroke-width: 1.5;" width="160" x="97" y="59"/><ellipse cx="121.45" cy="75" fill="#B4A7E5" rx="11" ry="11" style="stroke: #A80036; stroke-width: 1.0;"/><path d="M117.8777,71.2651 L117.8777,69.1069 L125.2571,69.1069 L125.2571,71.2651 L122.7918,71.2651 L122.7918,79.3418 L125.2571,79.3418 L125.2571,81.5 L117.8777,81.5 L117.8777,79.3418 L120.3431,79.3418 L120.3431,71.2651 Z "/><text fill="#000000" font-family="sans-serif" font-size="12" font-style="italic" lengthAdjust="spacingAndGlyphs" textLength="107" x="137.55" y="79.5352">SharkNetPublicKey</text><line style="stroke: #A80036; stroke-width: 1.5;" x1="98" x2="256" y1="91" y2="91"/><line style="stroke: #A80036; stroke-width: 1.5;" x1="98" x2="256" y1="99" y2="99"/><ellipse cx="108" cy="110" fill="#84BE84" rx="3" ry="3" style="stroke: #038048; stroke-width: 1.0;"/><text fill="#000000" font-family="sans-serif" font-size="11" font-style="italic" lengthAdjust="spacingAndGlyphs" textLength="91" x="117" y="113.6348">getOwner(): User</text><ellipse cx="108" cy="122.9551" fill="#84BE84" rx="3" ry="3" style="stroke: #038048; stroke-width: 1.0;"/><text fill="#000000" font-family="sans-serif" font-size="11" font-style="italic" lengthAdjust="spacingAndGlyphs" textLength="111" x="117" y="126.5898">setAlias(String): void</text><ellipse cx="108" cy="135.9102" fill="#84BE84" rx="3" ry="3" style="stroke: #038048; stroke-width: 1.0;"/><text fill="#000000" font-family="sans-serif" font-size="11" font-style="italic" lengthAdjust="spacingAndGlyphs" textLength="133" x="117" y="139.5449">getPublicKey(): PublicKey</text><ellipse cx="108" cy="148.8652" fill="#84BE84" rx="3" ry="3" style="stroke: #038048; stroke-width: 1.0;"/><text fill="#000000" font-family="sans-serif" font-size="11" font-style="italic" lengthAdjust="spacingAndGlyphs" textLength="134" x="117" y="152.5">getExpirationDate(): Date</text></a><!--MD5=[5a5af9b0547913863cbe0ddf55a9ab5e]
class java.io.Serializable--><a href="https://docs.oracle.com/javase/7/docs/api/java/io/Serializable.html?is-external=true" target="_top" title="https://docs.oracle.com/javase/7/docs/api/java/io/Serializable.html?is-external=true" xlink:actuate="onRequest" xlink:href="https://docs.oracle.com/javase/7/docs/api/java/io/Serializable.html?is-external=true" xlink:show="new" xlink:title="https://docs.oracle.com/javase/7/docs/api/java/io/Serializable.html?is-external=true" xlink:type="simple"><rect fill="#FEFECE" filter="url(#fx8cg3gg5r1f)" height="48" id="java.io.Serializable" style="stroke: #A80036; stroke-width: 1.5;" width="98" x="688" y="85"/><ellipse cx="703" cy="101" fill="#B4A7E5" rx="11" ry="11" style="stroke: #A80036; stroke-width: 1.0;"/><path d="M699.4277,97.2651 L699.4277,95.1069 L706.8071,95.1069 L706.8071,97.2651 L704.3418,97.2651 L704.3418,105.3418 L706.8071,105.3418 L706.8071,107.5 L699.4277,107.5 L699.4277,105.3418 L701.8931,105.3418 L701.8931,97.2651 Z "/><text fill="#000000" font-family="sans-serif" font-size="12" font-style="italic" lengthAdjust="spacingAndGlyphs" textLength="66" x="717" y="105.5352">Serializable</text><line style="stroke: #A80036; stroke-width: 1.5;" x1="689" x2="785" y1="117" y2="117"/><line style="stroke: #A80036; stroke-width: 1.5;" x1="689" x2="785" y1="125" y2="125"/></a><!--MD5=[46c05dfe24a0851e179497c4631d3ff2]
class java.lang.Exception--><a href="https://docs.oracle.com/javase/7/docs/api/java/lang/Exception.html?is-external=true" target="_top" title="https://docs.oracle.com/javase/7/docs/api/java/lang/Exception.html?is-external=true" xlink:actuate="onRequest" xlink:href="https://docs.oracle.com/javase/7/docs/api/java/lang/Exception.html?is-external=true" xlink:show="new" xlink:title="https://docs.oracle.com/javase/7/docs/api/java/lang/Exception.html?is-external=true" xlink:type="simple"><rect fill="#FEFECE" filter="url(#fx8cg3gg5r1f)" height="48" id="java.lang.Exception" style="stroke: #A80036; stroke-width: 1.5;" width="88" x="917" y="85"/><ellipse cx="932" cy="101" fill="#ADD1B2" rx="11" ry="11" style="stroke: #A80036; stroke-width: 1.0;"/><path d="M934.4731,107.1431 Q933.8921,107.4419 933.2529,107.5913 Q932.6138,107.7407 931.9082,107.7407 Q929.4014,107.7407 928.0815,106.0889 Q926.7617,104.437 926.7617,101.3159 Q926.7617,98.1865 928.0815,96.5347 Q929.4014,94.8828 931.9082,94.8828 Q932.6138,94.8828 933.2612,95.0322 Q933.9087,95.1816 934.4731,95.4805 L934.4731,98.2031 Q933.8423,97.6221 933.2488,97.3523 Q932.6553,97.0825 932.0244,97.0825 Q930.6797,97.0825 929.9949,98.1492 Q929.3101,99.2158 929.3101,101.3159 Q929.3101,103.4077 929.9949,104.4744 Q930.6797,105.541 932.0244,105.541 Q932.6553,105.541 933.2488,105.2712 Q933.8423,105.0015 934.4731,104.4204 Z "/><text fill="#000000" font-family="sans-serif" font-size="12" lengthAdjust="spacingAndGlyphs" textLength="56" x="946" y="105.5352">Exception</text><line style="stroke: #A80036; stroke-width: 1.5;" x1="918" x2="1004" y1="117" y2="117"/><line style="stroke: #A80036; stroke-width: 1.5;" x1="918" x2="1004" y1="125" y2="125"/></a><!--MD5=[3e93d0bc6a0fa540197cfd9068b03757]
reverse link main.de.htw.berlin.s0551733.sharknetpki.User to main.de.htw.berlin.s0551733.sharknetpki.impl.SharkNetUser--><path d="M619.56,166.72 C643.12,190.34 670.21,217.51 692.91,240.28 " fill="none" id="main.de.htw.berlin.s0551733.sharknetpki.User&lt;-main.de.htw.berlin.s0551733.sharknetpki.impl.SharkNetUser" style="stroke: #A80036; stroke-width: 1.0; stroke-dasharray: 7.0,7.0;"/><polygon fill="none" points="614.59,171.64,605.42,152.54,624.5,161.76,614.59,171.64" style="stroke: #A80036; stroke-width: 1.0;"/><!--MD5=[7785ceee0fb86749fb8146866da14002]
reverse link java.io.Serializable to main.de.htw.berlin.s0551733.sharknetpki.impl.SharkNetUser--><path d="M738.2,153.15 C738.93,179.45 739.87,213.14 740.63,240.44 " fill="none" id="java.io.Serializable&lt;-main.de.htw.berlin.s0551733.sharknetpki.impl.SharkNetUser" style="stroke: #A80036; stroke-width: 1.0; stroke-dasharray: 7.0,7.0;"/><polygon fill="none" points="731.2,153.29,737.64,133.1,745.2,152.9,731.2,153.29" style="stroke: #A80036; stroke-width: 1.0;"/><!--MD5=[bb40f8a0b72b64ee66be1ec8c5e57d10]
reverse link java.io.Serializable to main.de.htw.berlin.s0551733.sharknetpki.impl.SharkNetCertificateImpl--><path d="M694.99,146.22 C680.41,158.31 663.77,171.6 648,183 C643.42,186.31 599.53,214.12 557.77,240.49 " fill="none" id="java.io.Serializable&lt;-main.de.htw.berlin.s0551733.sharknetpki.impl.SharkNetCertificateImpl" style="stroke: #A80036; stroke-width: 1.0; stroke-dasharray: 7.0,7.0;"/><polygon fill="none" points="690.6,140.77,710.41,133.25,699.62,151.48,690.6,140.77" style="stroke: #A80036; stroke-width: 1.0;"/><!--MD5=[a0474f5608e0f34de9a91bcd14f78b46]
reverse link main.de.htw.berlin.s0551733.sharknetpki.SharkNetCertificate to main.de.htw.berlin.s0551733.sharknetpki.impl.SharkNetCertificateImpl--><path d="M410.81,170.08 C424.03,192.89 438.91,218.58 451.48,240.28 " fill="none" id="main.de.htw.berlin.s0551733.sharknetpki.SharkNetCertificate&lt;-main.de.htw.berlin.s0551733.sharknetpki.impl.SharkNetCertificateImpl" style="stroke: #A80036; stroke-width: 1.0; stroke-dasharray: 7.0,7.0;"/><polygon fill="none" points="404.62,173.35,400.65,152.54,416.73,166.33,404.62,173.35" style="stroke: #A80036; stroke-width: 1.0;"/><!--MD5=[0fa447ae06da19985527eaf25ffcd853]
reverse link java.lang.Exception to main.de.htw.berlin.s0551733.sharknetpki.impl.SharkNetException--><path d="M961,153.31 C961,186.32 961,230.91 961,259.93 " fill="none" id="java.lang.Exception&lt;-main.de.htw.berlin.s0551733.sharknetpki.impl.SharkNetException" style="stroke: #A80036; stroke-width: 1.0;"/><polygon fill="none" points="954,153.1,961,133.1,968,153.1,954,153.1" style="stroke: #A80036; stroke-width: 1.0;"/><!--MD5=[bd46e1f59de289c549b01e7213265539]
reverse link java.io.Serializable to main.de.htw.berlin.s0551733.sharknetpki.impl.SharkNetPublicKeyImpl--><path d="M702.59,147.31 C687.36,161.22 668.3,175.46 648,183 C614.24,195.54 358.4,180.36 324,191 C294.41,200.15 265.09,216.84 240.21,233.91 " fill="none" id="java.io.Serializable&lt;-main.de.htw.berlin.s0551733.sharknetpki.impl.SharkNetPublicKeyImpl" style="stroke: #A80036; stroke-width: 1.0; stroke-dasharray: 7.0,7.0;"/><polygon fill="none" points="697.79,142.22,716.97,133.22,707.58,152.22,697.79,142.22" style="stroke: #A80036; stroke-width: 1.0;"/><!--MD5=[5a665887b220c30d7a3330812713494e]
reverse link main.de.htw.berlin.s0551733.sharknetpki.SharkNetPublicKey to main.de.htw.berlin.s0551733.sharknetpki.impl.SharkNetPublicKeyImpl--><path d="M175.07,179.19 C174.57,197.29 174.03,216.56 173.55,233.86 " fill="none" id="main.de.htw.berlin.s0551733.sharknetpki.SharkNetPublicKey&lt;-main.de.htw.berlin.s0551733.sharknetpki.impl.SharkNetPublicKeyImpl" style="stroke: #A80036; stroke-width: 1.0; stroke-dasharray: 7.0,7.0;"/><polygon fill="none" points="168.08,178.85,175.63,159.05,182.07,179.24,168.08,178.85" style="stroke: #A80036; stroke-width: 1.0;"/><text fill="#888888" font-family="sans-serif" font-size="10" lengthAdjust="spacingAndGlyphs" textLength="182" x="462.5" y="398.668">UMLDoclet 2.0.7, PlantUML 1.2019.12</text><!--MD5=[0162b5c7458eb281806eb9a3999f34a9]
@startuml
    namespace main.de.htw.berlin.s0551733.sharknetpki.impl {

        class SharkNetUser [[SharkNetUser.html]] {
            +SharkNetUser(String, String)
            +getUuid(): String
            +getAlias(): String
            +setAlias(String): void
        }

        class SharkNetCertificateImpl [[SharkNetCertificateImpl.html]] {
            +SharkNetCertificateImpl(User, Certificate, User)
            +getSubject(): User
            +getCertificate(): Certificate
            +getSigner(): User
        }

        class SharkNetException [[SharkNetException.html]] {
            +SharkNetException(Throwable)
        }

        class SharkNetPublicKeyImpl [[SharkNetPublicKeyImpl.html]] {
            +SharkNetPublicKeyImpl(User, PublicKey, Date)
            +getOwner(): User
            +setAlias(String): void
            +getPublicKey(): PublicKey
            +getExpirationDate(): Date
        }

        main.de.htw.berlin.s0551733.sharknetpki.User <|.. SharkNetUser
        java.io.Serializable <|.. SharkNetUser
        java.io.Serializable <|.. SharkNetCertificateImpl
        main.de.htw.berlin.s0551733.sharknetpki.SharkNetCertificate <|.. SharkNetCertificateImpl
        java.lang.Exception <|- - SharkNetException
        java.io.Serializable <|.. SharkNetPublicKeyImpl
        main.de.htw.berlin.s0551733.sharknetpki.SharkNetPublicKey <|.. SharkNetPublicKeyImpl
    }

    namespace main.de.htw.berlin.s0551733.sharknetpki {
        interface User [[../User.html]] {
            {abstract} +getUuid(): String
            {abstract} +getAlias(): String
            {abstract} +setAlias(String): void
        }
        interface SharkNetCertificate [[../SharkNetCertificate.html]] {
            {abstract} +getSubject(): User
            {abstract} +getCertificate(): Certificate
            {abstract} +getSigner(): User
        }
        interface SharkNetPublicKey [[../SharkNetPublicKey.html]] {
            {abstract} +getOwner(): User
            {abstract} +setAlias(String): void
            {abstract} +getPublicKey(): PublicKey
            {abstract} +getExpirationDate(): Date
        }
    }

    namespace java.io {
        interface Serializable [[https://docs.oracle.com/javase/7/docs/api/java/io/Serializable.html?is-external=true]]
    }

    namespace java.lang {
        class Exception [[https://docs.oracle.com/javase/7/docs/api/java/lang/Exception.html?is-external=true]] {
        }
    }

    center footer UMLDoclet 2.0.7, PlantUML 1.2019.12
@enduml

PlantUML version 1.2019.12(Sun Nov 03 11:24:54 CET 2019)
(APACHE source distribution)
Java Runtime: OpenJDK Runtime Environment
JVM: OpenJDK 64-Bit Server VM
Java Version: 13.0.1+9
Operating System: Mac OS X
Default Encoding: UTF-8
Language: en
Country: DE
--></g></svg>