<?xml version="1.0" encoding="UTF-8" standalone="no"?><svg xmlns="http://www.w3.org/2000/svg" xmlns:xlink="http://www.w3.org/1999/xlink" contentScriptType="application/ecmascript" contentStyleType="text/css" height="198px" preserveAspectRatio="none" style="width:275px;height:198px;" version="1.1" viewBox="0 0 275 198" width="275px" zoomAndPan="magnify"><defs><filter height="300%" id="f11r8q1gr4zpow" width="300%" x="-1" y="-1"><feGaussianBlur result="blurOut" stdDeviation="2.0"/><feColorMatrix in="blurOut" result="blurOut2" type="matrix" values="0 0 0 0 0 0 0 0 0 0 0 0 0 0 0 0 0 0 .4 0"/><feOffset dx="4.0" dy="4.0" in="blurOut2" result="blurOut3"/><feBlend in="SourceGraphic" in2="blurOut3" mode="normal"/></filter></defs><g><!--MD5=[3ff316aa0cc2fa0ae36c6a824299a683]
class main.de.htw.berlin.s0551733.sharknetpki.impl.SharkNetException--><a href="SharkNetException.html" target="_top" title="SharkNetException.html" xlink:actuate="onRequest" xlink:href="SharkNetException.html" xlink:show="new" xlink:title="SharkNetException.html" xlink:type="simple"><rect fill="#FEFECE" filter="url(#f11r8q1gr4zpow)" height="59.2207" id="main.de.htw.berlin.s0551733.sharknetpki.impl.SharkNetException" style="stroke: #A80036; stroke-width: 1.5;" width="258" x="6" y="106"/><ellipse cx="21" cy="125.1328" fill="#ADD1B2" rx="11" ry="11" style="stroke: #A80036; stroke-width: 1.0;"/><path d="M23.4731,131.2759 Q22.8921,131.5747 22.2529,131.7241 Q21.6138,131.8735 20.9082,131.8735 Q18.4014,131.8735 17.0815,130.2217 Q15.7617,128.5698 15.7617,125.4487 Q15.7617,122.3193 17.0815,120.6675 Q18.4014,119.0156 20.9082,119.0156 Q21.6138,119.0156 22.2612,119.165 Q22.9087,119.3145 23.4731,119.6133 L23.4731,122.3359 Q22.8423,121.7549 22.2488,121.4851 Q21.6553,121.2153 21.0244,121.2153 Q19.6797,121.2153 18.9949,122.282 Q18.3101,123.3486 18.3101,125.4487 Q18.3101,127.5405 18.9949,128.6072 Q19.6797,129.6738 21.0244,129.6738 Q21.6553,129.6738 22.2488,129.4041 Q22.8423,129.1343 23.4731,128.5532 Z "/><text fill="#000000" font-family="sans-serif" font-size="14" lengthAdjust="spacingAndGlyphs" textLength="130" x="83" y="124.5352">SharkNetException</text><text fill="#000000" font-family="sans-serif" font-size="10" lengthAdjust="spacingAndGlyphs" textLength="226" x="35" y="137.1563">main.de.htw.berlin.s0551733.sharknetpki.impl</text><line style="stroke: #A80036; stroke-width: 1.5;" x1="7" x2="263" y1="144.2656" y2="144.2656"/><ellipse cx="17" cy="155.2656" fill="#84BE84" rx="3" ry="3" style="stroke: #038048; stroke-width: 1.0;"/><text fill="#000000" font-family="sans-serif" font-size="11" lengthAdjust="spacingAndGlyphs" textLength="165" x="26" y="158.9004">SharkNetException(Throwable)</text></a><!--MD5=[46c05dfe24a0851e179497c4631d3ff2]
class java.lang.Exception--><a href="https://docs.oracle.com/javase/7/docs/api/java/lang/Exception.html?is-external=true" target="_top" title="https://docs.oracle.com/javase/7/docs/api/java/lang/Exception.html?is-external=true" xlink:actuate="onRequest" xlink:href="https://docs.oracle.com/javase/7/docs/api/java/lang/Exception.html?is-external=true" xlink:show="new" xlink:title="https://docs.oracle.com/javase/7/docs/api/java/lang/Exception.html?is-external=true" xlink:type="simple"><rect fill="#FEFECE" filter="url(#f11r8q1gr4zpow)" height="38.2656" id="java.lang.Exception" style="stroke: #A80036; stroke-width: 1.5;" width="100" x="85" y="8"/><ellipse cx="100" cy="27.1328" fill="#ADD1B2" rx="11" ry="11" style="stroke: #A80036; stroke-width: 1.0;"/><path d="M102.4731,33.2759 Q101.8921,33.5747 101.2529,33.7241 Q100.6138,33.8735 99.9082,33.8735 Q97.4014,33.8735 96.0815,32.2217 Q94.7617,30.5698 94.7617,27.4487 Q94.7617,24.3193 96.0815,22.6675 Q97.4014,21.0156 99.9082,21.0156 Q100.6138,21.0156 101.2612,21.165 Q101.9087,21.3145 102.4731,21.6133 L102.4731,24.3359 Q101.8423,23.7549 101.2488,23.4851 Q100.6553,23.2153 100.0244,23.2153 Q98.6797,23.2153 97.9949,24.282 Q97.3101,25.3486 97.3101,27.4487 Q97.3101,29.5405 97.9949,30.6072 Q98.6797,31.6738 100.0244,31.6738 Q100.6553,31.6738 101.2488,31.4041 Q101.8423,31.1343 102.4731,30.5532 Z "/><text fill="#000000" font-family="sans-serif" font-size="14" lengthAdjust="spacingAndGlyphs" textLength="68" x="114" y="26.5352">Exception</text><text fill="#000000" font-family="sans-serif" font-size="10" lengthAdjust="spacingAndGlyphs" textLength="44" x="126" y="39.1563">java.lang</text></a><!--MD5=[0fa447ae06da19985527eaf25ffcd853]
reverse link java.lang.Exception to main.de.htw.berlin.s0551733.sharknetpki.impl.SharkNetException--><path d="M135,66.22 C135,79.3 135,93.7 135,105.89 " fill="none" id="java.lang.Exception&lt;-main.de.htw.berlin.s0551733.sharknetpki.impl.SharkNetException" style="stroke: #A80036; stroke-width: 1.0;"/><polygon fill="none" points="128,66.07,135,46.07,142,66.07,128,66.07" style="stroke: #A80036; stroke-width: 1.0;"/><text fill="#888888" font-family="sans-serif" font-size="10" lengthAdjust="spacingAndGlyphs" textLength="182" x="50" y="184.668">UMLDoclet 2.0.7, PlantUML 1.2019.12</text><!--MD5=[b81678fd494a2f29b49138149c66698b]
@startuml
    set namespaceSeparator none
    hide empty fields
    hide empty methods

    class "<size:14>SharkNetException\n<size:10>main.de.htw.berlin.s0551733.sharknetpki.impl" as main.de.htw.berlin.s0551733.sharknetpki.impl.SharkNetException [[SharkNetException.html]] {
        +SharkNetException(Throwable)
    }

    class "<size:14>Exception\n<size:10>java.lang" as java.lang.Exception [[https://docs.oracle.com/javase/7/docs/api/java/lang/Exception.html?is-external=true]]

    java.lang.Exception <|- - main.de.htw.berlin.s0551733.sharknetpki.impl.SharkNetException

    center footer UMLDoclet 2.0.7, PlantUML 1.2019.12
@enduml

PlantUML version 1.2019.12(Sun Nov 03 11:24:54 CET 2019)
(APACHE source distribution)
Java Runtime: OpenJDK Runtime Environment
JVM: OpenJDK 64-Bit Server VM
Java Version: 13.0.1+9
Operating System: Mac OS X
Default Encoding: UTF-8
Language: en
Country: DE
--></g></svg>