<?xml version="1.0" encoding="UTF-8" standalone="no"?><svg xmlns="http://www.w3.org/2000/svg" xmlns:xlink="http://www.w3.org/1999/xlink" contentScriptType="application/ecmascript" contentStyleType="text/css" height="284px" preserveAspectRatio="none" style="width:397px;height:284px;" version="1.1" viewBox="0 0 397 284" width="397px" zoomAndPan="magnify"><defs><filter height="300%" id="ffjnbatlscrbc" width="300%" x="-1" y="-1"><feGaussianBlur result="blurOut" stdDeviation="2.0"/><feColorMatrix in="blurOut" result="blurOut2" type="matrix" values="0 0 0 0 0 0 0 0 0 0 0 0 0 0 0 0 0 0 .4 0"/><feOffset dx="4.0" dy="4.0" in="blurOut2" result="blurOut3"/><feBlend in="SourceGraphic" in2="blurOut3" mode="normal"/></filter></defs><g><!--MD5=[248ff8f2f5d3cd33063c98e5bf0fb82a]
class main.de.htw.berlin.s0551733.sharknetpki.impl.SharkNetUser--><a href="SharkNetUser.html" target="_top" title="SharkNetUser.html" xlink:actuate="onRequest" xlink:href="SharkNetUser.html" xlink:show="new" xlink:title="SharkNetUser.html" xlink:type="simple"><rect fill="#FEFECE" filter="url(#ffjnbatlscrbc)" height="98.0859" id="main.de.htw.berlin.s0551733.sharknetpki.impl.SharkNetUser" style="stroke: #A80036; stroke-width: 1.5;" width="258" x="98" y="153"/><ellipse cx="113" cy="172.1328" fill="#ADD1B2" rx="11" ry="11" style="stroke: #A80036; stroke-width: 1.0;"/><path d="M115.4731,178.2759 Q114.8921,178.5747 114.2529,178.7241 Q113.6138,178.8735 112.9082,178.8735 Q110.4014,178.8735 109.0815,177.2217 Q107.7617,175.5698 107.7617,172.4487 Q107.7617,169.3193 109.0815,167.6675 Q110.4014,166.0156 112.9082,166.0156 Q113.6138,166.0156 114.2612,166.165 Q114.9087,166.3145 115.4731,166.6133 L115.4731,169.3359 Q114.8423,168.7549 114.2488,168.4851 Q113.6553,168.2153 113.0244,168.2153 Q111.6797,168.2153 110.9949,169.282 Q110.3101,170.3486 110.3101,172.4487 Q110.3101,174.5405 110.9949,175.6072 Q111.6797,176.6738 113.0244,176.6738 Q113.6553,176.6738 114.2488,176.4041 Q114.8423,176.1343 115.4731,175.5532 Z "/><text fill="#000000" font-family="sans-serif" font-size="14" lengthAdjust="spacingAndGlyphs" textLength="93" x="193.5" y="171.5352">SharkNetUser</text><text fill="#000000" font-family="sans-serif" font-size="10" lengthAdjust="spacingAndGlyphs" textLength="226" x="127" y="184.1563">main.de.htw.berlin.s0551733.sharknetpki.impl</text><line style="stroke: #A80036; stroke-width: 1.5;" x1="99" x2="355" y1="191.2656" y2="191.2656"/><ellipse cx="109" cy="202.2656" fill="#84BE84" rx="3" ry="3" style="stroke: #038048; stroke-width: 1.0;"/><text fill="#000000" font-family="sans-serif" font-size="11" lengthAdjust="spacingAndGlyphs" textLength="151" x="118" y="205.9004">SharkNetUser(String, String)</text><ellipse cx="109" cy="215.2207" fill="#84BE84" rx="3" ry="3" style="stroke: #038048; stroke-width: 1.0;"/><text fill="#000000" font-family="sans-serif" font-size="11" lengthAdjust="spacingAndGlyphs" textLength="88" x="118" y="218.8555">getUuid(): String</text><ellipse cx="109" cy="228.1758" fill="#84BE84" rx="3" ry="3" style="stroke: #038048; stroke-width: 1.0;"/><text fill="#000000" font-family="sans-serif" font-size="11" lengthAdjust="spacingAndGlyphs" textLength="89" x="118" y="231.8105">getAlias(): String</text><ellipse cx="109" cy="241.1309" fill="#84BE84" rx="3" ry="3" style="stroke: #038048; stroke-width: 1.0;"/><text fill="#000000" font-family="sans-serif" font-size="11" lengthAdjust="spacingAndGlyphs" textLength="111" x="118" y="244.7656">setAlias(String): void</text></a><!--MD5=[1492e09b876e805866db034bb89ce4ce]
class main.de.htw.berlin.s0551733.sharknetpki.User--><a href="../User.html" target="_top" title="../User.html" xlink:actuate="onRequest" xlink:href="../User.html" xlink:show="new" xlink:title="../User.html" xlink:type="simple"><rect fill="#FEFECE" filter="url(#ffjnbatlscrbc)" height="85.1309" id="main.de.htw.berlin.s0551733.sharknetpki.User" style="stroke: #A80036; stroke-width: 1.5;" width="234" x="6" y="8"/><ellipse cx="21" cy="27.1328" fill="#B4A7E5" rx="11" ry="11" style="stroke: #A80036; stroke-width: 1.0;"/><path d="M17.4277,23.3979 L17.4277,21.2397 L24.8071,21.2397 L24.8071,23.3979 L22.3418,23.3979 L22.3418,31.4746 L24.8071,31.4746 L24.8071,33.6328 L17.4277,33.6328 L17.4277,31.4746 L19.8931,31.4746 L19.8931,23.3979 Z "/><text fill="#000000" font-family="sans-serif" font-size="14" font-style="italic" lengthAdjust="spacingAndGlyphs" textLength="31" x="120.5" y="26.5352">User</text><text fill="#000000" font-family="sans-serif" font-size="10" font-style="italic" lengthAdjust="spacingAndGlyphs" textLength="202" x="35" y="39.1563">main.de.htw.berlin.s0551733.sharknetpki</text><line style="stroke: #A80036; stroke-width: 1.5;" x1="7" x2="239" y1="46.2656" y2="46.2656"/><ellipse cx="17" cy="57.2656" fill="#84BE84" rx="3" ry="3" style="stroke: #038048; stroke-width: 1.0;"/><text fill="#000000" font-family="sans-serif" font-size="11" font-style="italic" lengthAdjust="spacingAndGlyphs" textLength="88" x="26" y="60.9004">getUuid(): String</text><ellipse cx="17" cy="70.2207" fill="#84BE84" rx="3" ry="3" style="stroke: #038048; stroke-width: 1.0;"/><text fill="#000000" font-family="sans-serif" font-size="11" font-style="italic" lengthAdjust="spacingAndGlyphs" textLength="89" x="26" y="73.8555">getAlias(): String</text><ellipse cx="17" cy="83.1758" fill="#84BE84" rx="3" ry="3" style="stroke: #038048; stroke-width: 1.0;"/><text fill="#000000" font-family="sans-serif" font-size="11" font-style="italic" lengthAdjust="spacingAndGlyphs" textLength="111" x="26" y="86.8105">setAlias(String): void</text></a><!--MD5=[5a5af9b0547913863cbe0ddf55a9ab5e]
class java.io.Serializable--><a href="https://docs.oracle.com/javase/7/docs/api/java/io/Serializable.html?is-external=true" target="_top" title="https://docs.oracle.com/javase/7/docs/api/java/io/Serializable.html?is-external=true" xlink:actuate="onRequest" xlink:href="https://docs.oracle.com/javase/7/docs/api/java/io/Serializable.html?is-external=true" xlink:show="new" xlink:title="https://docs.oracle.com/javase/7/docs/api/java/io/Serializable.html?is-external=true" xlink:type="simple"><rect fill="#FEFECE" filter="url(#ffjnbatlscrbc)" height="38.2656" id="java.io.Serializable" style="stroke: #A80036; stroke-width: 1.5;" width="111" x="275.5" y="31.5"/><ellipse cx="290.5" cy="50.6328" fill="#B4A7E5" rx="11" ry="11" style="stroke: #A80036; stroke-width: 1.0;"/><path d="M286.9277,46.8979 L286.9277,44.7397 L294.3071,44.7397 L294.3071,46.8979 L291.8418,46.8979 L291.8418,54.9746 L294.3071,54.9746 L294.3071,57.1328 L286.9277,57.1328 L286.9277,54.9746 L289.3931,54.9746 L289.3931,46.8979 Z "/><text fill="#000000" font-family="sans-serif" font-size="14" font-style="italic" lengthAdjust="spacingAndGlyphs" textLength="79" x="304.5" y="50.0352">Serializable</text><text fill="#000000" font-family="sans-serif" font-size="10" font-style="italic" lengthAdjust="spacingAndGlyphs" textLength="32" x="328" y="62.6563">java.io</text></a><!--MD5=[3e93d0bc6a0fa540197cfd9068b03757]
reverse link main.de.htw.berlin.s0551733.sharknetpki.User to main.de.htw.berlin.s0551733.sharknetpki.impl.SharkNetUser--><path d="M163.67,109.96 C173.58,124.21 184.07,139.28 193.59,152.98 " fill="none" id="main.de.htw.berlin.s0551733.sharknetpki.User&lt;-main.de.htw.berlin.s0551733.sharknetpki.impl.SharkNetUser" style="stroke: #A80036; stroke-width: 1.0; stroke-dasharray: 7.0,7.0;"/><polygon fill="none" points="157.64,113.56,151.97,93.14,169.14,105.56,157.64,113.56" style="stroke: #A80036; stroke-width: 1.0;"/><!--MD5=[7785ceee0fb86749fb8146866da14002]
reverse link java.io.Serializable to main.de.htw.berlin.s0551733.sharknetpki.impl.SharkNetUser--><path d="M307.02,85.97 C293.23,105.8 275.69,131.01 260.55,152.78 " fill="none" id="java.io.Serializable&lt;-main.de.htw.berlin.s0551733.sharknetpki.impl.SharkNetUser" style="stroke: #A80036; stroke-width: 1.0; stroke-dasharray: 7.0,7.0;"/><polygon fill="none" points="301.29,81.95,318.46,69.53,312.78,89.95,301.29,81.95" style="stroke: #A80036; stroke-width: 1.0;"/><text fill="#888888" font-family="sans-serif" font-size="10" lengthAdjust="spacingAndGlyphs" textLength="182" x="111.5" y="270.668">UMLDoclet 2.0.7, PlantUML 1.2019.12</text><!--MD5=[ed476229ffa879b42522eca6f921fdfb]
@startuml
    set namespaceSeparator none
    hide empty fields
    hide empty methods

    class "<size:14>SharkNetUser\n<size:10>main.de.htw.berlin.s0551733.sharknetpki.impl" as main.de.htw.berlin.s0551733.sharknetpki.impl.SharkNetUser [[SharkNetUser.html]] {
        +SharkNetUser(String, String)
        +getUuid(): String
        +getAlias(): String
        +setAlias(String): void
    }

    interface "<size:14>User\n<size:10>main.de.htw.berlin.s0551733.sharknetpki" as main.de.htw.berlin.s0551733.sharknetpki.User [[../User.html]] {
        {abstract} +getUuid(): String
        {abstract} +getAlias(): String
        {abstract} +setAlias(String): void
    }
    interface "<size:14>Serializable\n<size:10>java.io" as java.io.Serializable [[https://docs.oracle.com/javase/7/docs/api/java/io/Serializable.html?is-external=true]]

    main.de.htw.berlin.s0551733.sharknetpki.User <|.. main.de.htw.berlin.s0551733.sharknetpki.impl.SharkNetUser
    java.io.Serializable <|.. main.de.htw.berlin.s0551733.sharknetpki.impl.SharkNetUser

    center footer UMLDoclet 2.0.7, PlantUML 1.2019.12
@enduml

PlantUML version 1.2019.12(Sun Nov 03 11:24:54 CET 2019)
(APACHE source distribution)
Java Runtime: OpenJDK Runtime Environment
JVM: OpenJDK 64-Bit Server VM
Java Version: 13.0.1+9
Operating System: Mac OS X
Default Encoding: UTF-8
Language: en
Country: DE
--></g></svg>